<?xml version="1.0" encoding="UTF-8"?>
<svg version="1.1" xmlns="http://www.w3.org/2000/svg" width="974" height="974">
<path d="M0 0 C0.97954651 0.12728485 0.97954651 0.12728485 1.97888184 0.25714111 C45.57501102 5.93024911 88.98546408 17.65128144 129 36 C129.66235657 36.30355408 130.32471313 36.60710815 131.00714111 36.91986084 C155.92425304 48.38332681 179.38894983 61.43300306 202 77 C202.70962891 77.48291504 203.41925781 77.96583008 204.15039062 78.46337891 C218.09024913 87.960621 231.21691942 98.41330767 243.62890625 109.83984375 C244.91819599 111.01443556 246.21495094 112.18180065 247.54663086 113.30810547 C254.19754076 118.96524208 260.32979464 125.14371027 266.49926758 131.31396484 C268.42444702 133.23696182 270.35749031 135.15180574 272.29101562 137.06640625 C278.61613067 143.36345442 284.65499169 149.68586901 290.17700195 156.70947266 C291.95137124 158.93889983 293.81347061 161.0360536 295.75 163.125 C352.30106277 226.19686126 386.09013096 312.7755435 397 396 C397.16081055 397.10617676 397.32162109 398.21235352 397.48730469 399.35205078 C400.16057662 418.02361502 400.31209455 436.72910133 400.36791611 455.55992889 C400.37484667 457.51915489 400.38690453 459.47836061 400.39907837 461.43756104 C400.81154494 547.9612621 375.39505759 639.87010722 325.35742188 711.0625 C323.810604 713.27033213 322.28832601 715.49422064 320.765625 717.71875 C309.93027269 733.47011355 298.64123297 748.63534875 285.41943359 762.46948242 C283.92073599 764.08546717 282.5008339 765.75369453 281.07421875 767.43359375 C275.76110627 773.53965406 269.97964099 779.20636043 264.25878906 784.92651367 C262.26336586 786.92411952 260.27608944 788.92959353 258.2890625 790.93554688 C251.85986797 797.39242884 245.41742016 803.58561153 238.24853516 809.22509766 C236.13442526 810.89389016 234.12299844 812.63242705 232.125 814.4375 C161.8581273 876.23848443 65.32852515 909.97832212 -59.4375 917.375 C-60.78061799 917.37024886 -62.12373742 917.36588947 -63.46685791 917.36190796 C-82.81574503 917.29548685 -101.8356074 916.8207212 -121 914 C-122.24587891 913.82839355 -123.49175781 913.65678711 -124.77539062 913.47998047 C-173.93236331 906.64175913 -221.51707685 891.92300809 -266 870 C-267.0007959 869.50918945 -268.0015918 869.01837891 -269.03271484 868.51269531 C-297.69119722 854.33938928 -324.76963073 836.94542131 -349.28808594 816.42382812 C-351.72763276 814.39481543 -354.21120704 812.42138889 -356.6875 810.4375 C-362.41652479 805.74157804 -367.8218231 800.72669745 -373.22167969 795.66064453 C-375.10977064 793.89749315 -377.01072461 792.1490187 -378.9140625 790.40234375 C-390.57214077 779.67444654 -390.57214077 779.67444654 -395.140625 774.17578125 C-397.24021907 771.71890332 -399.43830902 769.37356855 -401.65209961 767.01977539 C-407.72714292 760.5590697 -413.47386578 753.94067369 -419 747 C-419.90745785 745.89468549 -420.81639287 744.79058258 -421.7265625 743.6875 C-473.21071155 680.92234139 -506.24209391 601.03371229 -516.52832031 520.65332031 C-516.9678336 517.24913975 -517.4617042 513.85675332 -517.9609375 510.4609375 C-522.92940217 473.39317985 -522.32961302 432.97856883 -517 396 C-516.84966309 394.83243164 -516.69932617 393.66486328 -516.54443359 392.46191406 C-507.7771841 324.56352699 -482.45827765 257.60926555 -444 201 C-443.18595703 199.79947998 -443.18595703 199.79947998 -442.35546875 198.57470703 C-435.08394924 187.90338283 -427.53190315 177.56090434 -419.3125 167.60058594 C-418.11917322 166.14533104 -416.94886517 164.67127674 -415.78125 163.1953125 C-405.60867772 150.40368244 -393.97160959 138.87367688 -382.46798706 127.29275513 C-381.33911734 126.1558242 -380.21173027 125.01741885 -379.08596802 123.87741089 C-372.82184351 117.54241281 -366.48456817 111.55853844 -359.50170898 106.00317383 C-357.2079785 104.16653299 -354.99687618 102.27177509 -352.80078125 100.3203125 C-289.38988486 44.33069644 -203.33608975 10.2852514 -120 0 C-118.77619629 -0.16081055 -117.55239258 -0.32162109 -116.29150391 -0.48730469 C-78.13295083 -5.35946429 -38.11787063 -5.07808908 0 0 Z " fill="#FEF7EB" transform="translate(547,30)"/>
<path d="M0 0 C0.87351109 -0.00453111 1.74702217 -0.00906223 2.64700329 -0.01373065 C5.56168984 -0.02634836 8.4761889 -0.02475598 11.39089966 -0.02310181 C13.48567952 -0.02908864 15.58045717 -0.03589454 17.67523193 -0.04345703 C23.35707052 -0.06110705 29.03884884 -0.06581196 34.72071218 -0.0670886 C38.27219995 -0.06851116 41.82367244 -0.07278272 45.3751564 -0.07808304 C57.76973695 -0.09657901 70.16427451 -0.10475406 82.55886841 -0.10317993 C94.10540624 -0.1019782 105.65175724 -0.12308807 117.19824779 -0.15466726 C127.11862627 -0.18083056 137.03894372 -0.19154722 146.95935643 -0.19026911 C152.88129506 -0.18975956 158.80306756 -0.19543948 164.72497177 -0.21662521 C170.29498172 -0.2360087 175.86466708 -0.23613109 181.43468857 -0.22159195 C183.47564163 -0.21950301 185.51661502 -0.22420978 187.55753326 -0.23631287 C190.35042099 -0.25179905 193.14219407 -0.24243498 195.93505859 -0.22705078 C197.13756738 -0.24248147 197.13756738 -0.24248147 198.36436927 -0.25822389 C207.10487557 -0.15231296 213.97915927 3.46512512 220.30545044 9.33773804 C225.54260869 14.98655065 229.33952909 21.69938184 229.35178185 29.508708 C229.35823074 30.55054814 229.36467963 31.59238827 229.37132394 32.66579932 C229.36667814 34.3729751 229.36667814 34.3729751 229.36193848 36.11463928 C229.36646959 37.32875435 229.3710007 38.54286942 229.37566912 39.79377586 C229.38614158 43.16091275 229.38763859 46.52783609 229.38528037 49.89497411 C229.38487221 53.52771051 229.39591138 57.16041505 229.40539551 60.7931366 C229.42200778 67.90990901 229.42750519 75.0266483 229.42862026 82.14343848 C229.4295708 87.92985197 229.43368137 93.71625453 229.44002151 99.50266457 C229.45763592 115.9130562 229.46686028 132.32342169 229.46536057 148.73382284 C229.46528065 149.61849328 229.46520074 150.50316371 229.46511841 151.41464233 C229.46503665 152.30039492 229.46495489 153.18614751 229.46487065 154.09874109 C229.46405808 168.44740144 229.4831877 182.79595673 229.51139514 197.1445867 C229.54013869 211.8824225 229.55393457 226.62020709 229.55220759 241.35807163 C229.55154411 249.63028162 229.55701771 257.90238154 229.57856369 266.17456627 C229.59679504 273.21928488 229.60110698 280.26384352 229.58754484 287.30857553 C229.58102447 290.9007588 229.58086376 294.49263537 229.59825134 298.08478928 C229.6169357 301.98509852 229.6044028 305.88496239 229.58898926 309.78529358 C229.59927638 310.91225716 229.60956351 312.03922074 229.62016237 313.20033473 C229.52662297 323.92844039 226.51793607 331.60981796 219.09841919 339.35726929 C211.52855643 346.57298642 203.21972383 347.57691577 193.13833618 347.52812195 C192.28353401 347.5319475 191.42873183 347.53577304 190.54802656 347.53971452 C187.70864017 347.54996153 184.86945914 347.54606829 182.03005981 347.54208374 C179.98424596 347.54643474 177.93843373 347.55161919 175.8926239 347.55757141 C170.35345456 347.5709291 164.81435358 347.5715438 159.27517128 347.56900811 C154.64539592 347.56793646 150.01563429 347.5728266 145.38586187 347.57761353 C134.46240043 347.588697 123.53897338 347.58915229 112.61550903 347.58309937 C101.35638562 347.57705633 90.09738708 347.58938169 78.83828497 347.61066943 C69.15990323 347.62829384 59.4815612 347.63428556 49.80316401 347.63103169 C44.02772276 347.62922044 38.25237065 347.63183956 32.47694397 347.64574623 C27.04647791 347.65833397 21.61620645 347.6563714 16.18574333 347.64333534 C14.19639457 347.6409723 12.20703206 347.64369447 10.21769905 347.65195847 C7.49513826 347.66245038 4.77322761 347.65430579 2.0506897 347.64164734 C1.26983615 347.64902162 0.48898261 347.65639591 -0.31553316 347.66399366 C-8.94967226 347.57995477 -17.19209331 344.77760412 -23.90548706 339.26742554 C-32.40640289 330.35764803 -34.35720484 322.0896133 -34.29316711 310.09741211 C-34.29855265 308.88481732 -34.30393819 307.67222253 -34.30948693 306.42288244 C-34.32128369 303.07382254 -34.31971164 299.72526274 -34.31232011 296.37622309 C-34.30757915 292.75784678 -34.32010651 289.13952321 -34.33033752 285.52116394 C-34.347513 278.43887332 -34.34836811 271.35667147 -34.34312462 264.27436544 C-34.33907918 258.51614674 -34.34053092 252.75795423 -34.34587288 246.99973679 C-34.3466213 246.17942565 -34.34736972 245.35911451 -34.34814082 244.51394545 C-34.34967234 242.84734603 -34.35121069 241.18074662 -34.35275579 239.51414721 C-34.36647643 223.89316142 -34.36104633 208.27222575 -34.34957058 192.65124111 C-34.33963972 178.3706653 -34.35257708 164.09021908 -34.37650477 149.80966325 C-34.40090692 135.13500718 -34.41050084 120.46041144 -34.40385205 105.78573549 C-34.40036217 97.55158302 -34.40257654 89.31753019 -34.42010307 81.0833931 C-34.43483906 74.07350628 -34.43544237 67.06378927 -34.41803216 60.05390574 C-34.409531 56.47993467 -34.40735057 52.90626674 -34.42268372 49.33231163 C-34.43912521 45.4518554 -34.42435783 41.57186479 -34.4066925 37.69140625 C-34.41629751 36.57037998 -34.42590252 35.44935371 -34.43579859 34.29435694 C-34.34665668 24.76147463 -32.14723724 16.87960207 -25.46798706 9.82992554 C-24.72677612 9.0268396 -23.98556519 8.22375366 -23.22189331 7.39633179 C-16.33442164 1.06636204 -8.98219513 -0.03451001 0 0 Z " fill="#7A5B3F" transform="translate(579.9054870605469,475.7325744628906)"/>
<path d="M0 0 C1.29373535 -0.00100708 2.5874707 -0.00201416 3.92041016 -0.00305176 C23.86716119 0.00744653 43.40052061 0.61765575 63.1875 3.25 C64.80301758 3.45085205 64.80301758 3.45085205 66.45117188 3.65576172 C95.81145547 7.36400329 125.06518852 14.08746711 153.1875 23.25 C154.16251465 23.56404785 155.1375293 23.8780957 156.14208984 24.20166016 C198.94249603 38.11305291 240.23481993 58.62213639 277.1875 84.25 C278.6938473 85.28018647 280.20035249 86.31014211 281.70703125 87.33984375 C290.98546241 93.73376151 299.78028783 100.60230348 308.44042969 107.80712891 C309.96943892 109.06990763 311.51833048 110.30853319 313.0703125 111.54296875 C320.12247904 117.15312512 326.6430809 123.26416461 333.17578125 129.4609375 C336.27809288 132.40310579 339.41943511 135.29696244 342.58398438 138.171875 C347.21849962 142.38803423 351.63139183 146.65470395 355.65625 151.46875 C357.20843021 153.27434739 358.84847678 154.9108049 360.5625 156.5625 C364.32761144 160.2603773 367.56731173 164.3248293 370.87109375 168.43359375 C373.04735421 171.07960351 375.30323459 173.60668303 377.625 176.125 C440.07808222 244.95305083 476.23462689 341.83593305 486.1875 433.25 C486.27470306 434.03193726 486.36190613 434.81387451 486.45175171 435.61950684 C488.22610798 451.98346994 488.55129144 468.26839289 488.50555801 484.71910858 C488.49991488 486.78110329 488.49709628 488.84308977 488.49447632 490.90509033 C488.45826337 510.50784874 488.02914467 529.81592277 485.1875 549.25 C484.92412013 551.19332304 484.6607519 553.13664768 484.39782715 555.08003235 C478.11464033 600.97854573 465.63670213 646.16274135 446.1875 688.25 C445.71940918 689.26449219 445.25131836 690.27898438 444.76904297 691.32421875 C434.62663147 713.16210911 423.35666799 734.09009611 410.1875 754.25 C409.50300781 755.31089844 408.81851563 756.37179687 408.11328125 757.46484375 C396.09469141 775.83287728 382.84604359 793.3913642 367.8203125 809.40625 C365.91773028 811.46126462 364.09960749 813.52863536 362.2890625 815.66015625 C356.96304271 821.77072919 351.17560892 827.44789354 345.44628906 833.17651367 C343.45086586 835.17411952 341.46358944 837.17959353 339.4765625 839.18554688 C333.06150382 845.62823362 326.63652766 851.81093356 319.47875977 857.43237305 C317.19083028 859.24735813 315.0293216 861.15427186 312.875 863.125 C257.34980319 912.78485912 185.19328395 945.27511901 113.1875 962.25 C112.2588916 962.4773584 111.3302832 962.7047168 110.37353516 962.93896484 C97.95795168 965.97121953 85.44995763 968.09436501 72.8125 969.9375 C71.77440186 970.09173431 71.77440186 970.09173431 70.71533203 970.24908447 C47.77285673 973.62245687 24.85751605 974.632031 1.6875 974.5625 C0.41924377 974.56067719 -0.84901245 974.55885437 -2.15570068 974.55697632 C-21.8847167 974.50937263 -41.24612031 973.9084755 -60.8125 971.25 C-62.11574219 971.07839355 -63.41898437 970.90678711 -64.76171875 970.72998047 C-94.04128699 966.81780281 -122.67419888 960.2792252 -150.8125 951.25 C-151.79621582 950.93450195 -152.77993164 950.61900391 -153.79345703 950.29394531 C-206.47697842 933.16181451 -258.00285794 906.12400498 -300.8125 870.8125 C-302.19658399 869.67704604 -303.58069864 868.54162945 -304.96484375 867.40625 C-305.95460205 866.59220703 -305.95460205 866.59220703 -306.96435547 865.76171875 C-308.55075706 864.46409674 -310.15101843 863.18345145 -311.75390625 861.90625 C-324.25167394 851.92293631 -335.54703563 840.61810362 -346.88061523 829.3571167 C-348.06904308 828.17675783 -349.2589448 826.99788073 -350.45043945 825.82061768 C-356.97342128 819.36731796 -363.18578085 812.87874773 -368.87182617 805.66430664 C-370.9035743 803.13669848 -373.04747065 800.75443422 -375.25 798.375 C-439.71552347 727.32908573 -475.22160445 627.63983155 -486.015625 505.015625 C-486.02607849 503.17860519 -486.02607849 503.17860519 -486.03674316 501.30447388 C-486.05405025 497.36963332 -486.0609197 493.43487028 -486.0625 489.5 C-486.06308914 488.82985115 -486.06367828 488.1597023 -486.06428528 487.46924591 C-486.0772547 466.57121623 -485.6106751 445.98906071 -482.8125 425.25 C-482.67328125 424.15461914 -482.5340625 423.05923828 -482.390625 421.93066406 C-470.76623452 331.9223628 -433.12586805 245.35721973 -371.875 172.1875 C-371.44566162 171.68250977 -371.01632324 171.17751953 -370.57397461 170.65722656 C-361.56641348 160.20943208 -352.00748133 150.27743237 -342.23828125 140.54541016 C-340.54568653 138.85824042 -338.85859403 137.16569804 -337.171875 135.47265625 C-331.55232288 129.84971654 -325.86762546 124.40732791 -319.8125 119.25 C-318.24689785 117.81587922 -316.68392515 116.37887604 -315.125 114.9375 C-309.88598171 110.22238354 -304.37881879 105.91210858 -298.73925781 101.69238281 C-297.38970785 100.68210137 -296.0429293 99.66811213 -294.69824219 98.65136719 C-278.1285428 86.13187804 -260.92891327 74.73653346 -242.89257812 64.43847656 C-241.51370509 63.6506416 -240.13735879 62.85836661 -238.76367188 62.06152344 C-178.57791883 27.17660591 -110.77727217 7.89536015 -41.8125 1.25 C-40.7805249 1.1454248 -39.7485498 1.04084961 -38.68530273 0.93310547 C-25.83061843 -0.18765699 -12.89233073 0.00694454 0 0 Z M-24.3125 14 C-25.10564606 14.04256927 -25.89879211 14.08513855 -26.7159729 14.1289978 C-124.07963563 19.50731499 -218.29071308 55.58571721 -303.80097961 124.97235107 C-306.44454544 127.23812956 -309.09793838 129.48546145 -311.78393555 131.70117188 C-319.67718379 138.23736202 -327.04234902 145.16798929 -334.26171875 152.43847656 C-336.06810136 154.25563478 -337.88501495 156.06177102 -339.703125 157.8671875 C-346.53383517 164.69011987 -352.82078981 171.67145862 -358.8125 179.25 C-359.75935778 180.37490459 -360.71261193 181.49449851 -361.67578125 182.60546875 C-368.80889724 190.85348963 -375.40974935 199.42511149 -381.8125 208.25 C-382.37372559 209.02263184 -382.93495117 209.79526367 -383.51318359 210.59130859 C-395.86150194 227.68447086 -406.5850278 245.59298999 -416.64648438 264.11035156 C-417.76932689 266.17077699 -418.9072278 268.22227354 -420.046875 270.2734375 C-466.53760146 354.8974696 -481.24219223 457.00467055 -453.53515625 621.76171875 C-452.57235354 624.9159512 -451.57084922 628.05006617 -450.51220703 631.17333984 C-449.71721251 633.53280369 -448.95204211 635.90129299 -448.18359375 638.26953125 C-428.04039938 699.25232002 -394.28159709 754.30706582 -352.26293945 802.57836914 C-351.26531443 803.72813156 -350.27462927 804.88394064 -349.28979492 806.04467773 C-344.55465175 811.57100227 -339.47912852 816.73641577 -334.32446289 821.8684082 C-332.87725615 823.31025221 -331.43547974 824.75737116 -329.99414062 826.20507812 C-324.77046515 831.43289475 -319.44588441 836.46616077 -313.8125 841.25 C-312.69441972 842.22293331 -311.5772023 843.19685929 -310.4609375 844.171875 C-283.17948101 867.80618814 -253.504606 887.98736765 -221.8125 905.25 C-220.52641846 905.9608374 -220.52641846 905.9608374 -219.21435547 906.68603516 C-196.45727153 919.23909381 -172.40276015 928.92316343 -147.8125 937.25 C-147.08240723 937.4979834 -146.35231445 937.7459668 -145.60009766 938.00146484 C-141.03680164 939.532283 -136.43910303 940.92557567 -131.8125 942.25 C-130.88953125 942.51522461 -129.9665625 942.78044922 -129.015625 943.05371094 C-61.63328217 962.22946015 8.05839469 965.67674256 77.1875 955.25 C78.65606445 955.03005371 78.65606445 955.03005371 80.15429688 954.80566406 C101.97601638 951.4334997 124.25474708 946.10116219 145.15771484 938.94238281 C147.54338514 938.12860353 149.93792751 937.34330275 152.33203125 936.5546875 C192.92043032 923.00057731 232.18798025 903.96654119 267.1875 879.25 C267.89132812 878.75435547 268.59515625 878.25871094 269.3203125 877.74804688 C287.85894562 864.64040507 305.41982018 850.56188126 322.1875 835.25 C323.13238281 834.39792969 324.07726562 833.54585937 325.05078125 832.66796875 C334.2984828 824.30366129 343.40920197 815.72815527 351.49609375 806.21875 C353.42617842 803.97218493 355.43168139 801.80416096 357.4375 799.625 C362.47228545 794.03740871 367.08982847 788.16622355 371.67675781 782.2109375 C373.26665022 780.14726333 374.86384195 778.08935314 376.4609375 776.03125 C382.97286257 767.61059171 389.28503861 759.11259282 395.1875 750.25 C395.5911377 749.64849121 395.99477539 749.04698242 396.41064453 748.42724609 C449.45893684 669.08738688 477.02418007 574.17560905 466.1015625 393.94433594 C449.34380011 311.6195758 410.69774951 235.23818577 355.1875 172.25 C354.55473145 171.52820557 353.92196289 170.80641113 353.27001953 170.06274414 C347.40031266 163.44546136 341.25729272 157.13358508 335.00439453 150.8815918 C333.31642145 149.19142654 331.63664276 147.49339166 329.95703125 145.79492188 C323.34240784 139.14640278 316.54510938 133.07736623 309.1875 127.25 C308.07454887 126.3145961 306.96665758 125.37308803 305.8671875 124.421875 C245.026822 71.88562624 168.3053015 35.39241269 89.1875 21.25 C87.60219482 20.96503662 87.60219482 20.96503662 85.98486328 20.67431641 C49.59601808 14.29391306 12.56763529 12.00672937 -24.3125 14 Z " fill="#FEF7EB" transform="translate(485.8125,-0.25)"/>
<path d="M0 0 C1.81631676 0.00424484 1.81631676 0.00424484 3.66932678 0.00857544 C7.52053893 0.0197322 11.37151489 0.04482895 15.22265625 0.0703125 C17.84049142 0.0803481 20.45833026 0.08947294 23.07617188 0.09765625 C29.47932993 0.11795152 35.88198002 0.15710992 42.28515625 0.1953125 C42.28515625 10.4253125 42.28515625 20.6553125 42.28515625 31.1953125 C38.794375 31.22109375 35.30359375 31.246875 31.70703125 31.2734375 C28.32788002 31.31184488 24.94888206 31.35700949 21.56982422 31.40283203 C19.22061473 31.43106538 16.87130984 31.45226808 14.52197266 31.46630859 C11.14566107 31.48770474 7.77049958 31.53433987 4.39453125 31.5859375 C3.34336121 31.58716614 2.29219116 31.58839478 1.20916748 31.58966064 C0.22845276 31.60937927 -0.75226196 31.6290979 -1.76269531 31.64941406 C-2.6242926 31.65829651 -3.48588989 31.66717896 -4.37359619 31.67633057 C-7.6643468 32.40578786 -8.67784226 33.5054232 -10.71484375 36.1953125 C-11.1076323 39.10585878 -11.25415256 41.63749561 -11.22100163 44.54748535 C-11.22711498 45.40184268 -11.23322834 46.25620001 -11.23952696 47.13644695 C-11.25521265 50.01897448 -11.24222629 52.9006709 -11.22950745 55.78320312 C-11.23482894 57.86270898 -11.24189232 59.942211 -11.2505545 62.02170563 C-11.26926118 67.75142097 -11.26284928 73.48087926 -11.25240147 79.21060562 C-11.24543221 85.38383519 -11.26139002 91.55701074 -11.2743988 97.73022461 C-11.29482757 109.1296951 -11.29684767 120.52906125 -11.28918234 131.92853761 C-11.28211605 142.45863481 -11.28204581 152.98870147 -11.28904533 163.51879883 C-11.28995665 164.92999601 -11.29086742 166.3411932 -11.29177762 167.75239038 C-11.29316072 169.87879687 -11.2945518 172.00520336 -11.29596376 174.13160983 C-11.30894888 193.9067125 -11.31405336 213.68180491 -11.30243015 233.45690918 C-11.30199218 234.20270581 -11.30155421 234.94850245 -11.30110297 235.71689898 C-11.29749595 241.77373061 -11.29366128 247.83056211 -11.28981204 253.88739359 C-11.27496168 277.51872189 -11.28374636 301.14993465 -11.31176758 324.78125 C-11.34317266 351.31719331 -11.35817289 377.85306821 -11.34796757 404.38903046 C-11.34693075 407.21662901 -11.34594352 410.04422759 -11.34498405 412.87182617 C-11.34473517 413.56807832 -11.34448628 414.26433047 -11.34422985 414.98168117 C-11.34078522 425.50644779 -11.35011322 436.03115413 -11.36575508 446.5559082 C-11.38349538 458.52029897 -11.38322536 470.48453744 -11.36040343 482.44893456 C-11.34922086 488.55775798 -11.34618943 494.66630415 -11.36470413 500.77511597 C-11.38141711 506.36116071 -11.375283 511.9466844 -11.35048734 517.53269482 C-11.34557335 519.55954858 -11.34920235 521.58644365 -11.36197478 523.61326313 C-11.37802595 526.35719367 -11.36363324 529.09929372 -11.34125614 531.84313965 C-11.35924366 533.03854764 -11.35924366 533.03854764 -11.37759456 534.25810528 C-11.31410818 538.03997307 -11.04266906 539.83008039 -8.47946614 542.68575984 C-5.61273918 544.25106414 -4.08158781 544.69650151 -0.85447311 544.70032787 C0.10234903 544.71115876 1.05917117 544.72198965 2.04498792 544.73314875 C3.08807953 544.72470622 4.13117114 544.71626368 5.20587158 544.70756531 C6.32016438 544.71436099 7.43445718 544.72115668 8.58251643 544.7281583 C12.32376512 544.74614482 16.06439417 544.73563725 19.80566406 544.7253418 C22.48456982 544.73243717 25.16342636 544.74111623 27.84231567 544.75180054 C33.61375503 544.77170905 39.38506222 544.77715009 45.15653229 544.77286339 C53.502164 544.76677291 61.8476268 544.78362915 70.19322428 544.80627332 C83.73493229 544.84248587 97.27660712 544.86164394 110.81835938 544.86938477 C123.9700676 544.87695256 137.1217454 544.89005718 150.2734375 544.91235352 C151.08402128 544.91372421 151.89460505 544.91509491 152.72975197 544.91650715 C161.57245582 544.93162368 170.41515599 544.94835151 179.25785446 544.96632862 C180.03416347 544.96790059 180.81047248 544.96947256 181.61030601 544.97109217 C187.99724085 544.98403415 187.99724085 544.98403415 190.91809902 544.99010978 C200.0140563 545.00895006 209.10999127 545.02281351 218.20596716 545.02790544 C223.90645111 545.03113749 229.60692576 545.03738636 235.30740407 545.0460337 C238.60065277 545.05084416 241.89387722 545.05332548 245.18712997 545.05256462 C248.74890043 545.05190288 252.31061269 545.0572098 255.87237549 545.06401062 C256.92438998 545.06226025 257.97640448 545.06050988 259.0602982 545.05870646 C260.00668936 545.06171411 260.95308051 545.06472176 261.92815018 545.06782055 C262.75133153 545.0683103 263.57451289 545.06880005 264.42263913 545.06930465 C266.28515625 545.1953125 266.28515625 545.1953125 267.28515625 546.1953125 C267.28515625 556.0953125 267.28515625 565.9953125 267.28515625 576.1953125 C174.88515625 576.1953125 82.48515625 576.1953125 -12.71484375 576.1953125 C-12.71484375 575.5353125 -12.71484375 574.8753125 -12.71484375 574.1953125 C-13.66359375 574.1540625 -14.61234375 574.1128125 -15.58984375 574.0703125 C-23.9790985 572.81616128 -30.67689828 567.00935669 -35.95703125 560.703125 C-41.69604204 552.5154696 -43.8679475 544.62155218 -43.84627151 534.78181267 C-43.84832415 533.92081105 -43.85037678 533.05980943 -43.85249162 532.17271686 C-43.85817694 529.26778948 -43.85670248 526.36290928 -43.85528564 523.45797729 C-43.85786841 521.36212806 -43.86088132 519.26627931 -43.86428905 517.17043126 C-43.87237283 511.39537126 -43.87414938 505.62032369 -43.87488651 499.84525871 C-43.87673469 493.62285401 -43.88428085 487.40045578 -43.89102173 481.17805481 C-43.90532468 466.85429105 -43.911133 452.53053136 -43.91571367 438.20676198 C-43.91804928 431.12873932 -43.92165191 424.05071748 -43.92540905 416.97269545 C-43.93824521 392.74474183 -43.94896413 368.51678866 -43.95241165 344.28883171 C-43.95263328 342.767763 -43.95285507 341.24669429 -43.953077 339.72562558 C-43.95329764 338.20087656 -43.95351813 336.67612754 -43.95373845 335.15137851 C-43.954181 332.09245547 -43.95462812 329.03353242 -43.95507812 325.97460938 C-43.95518752 325.21617358 -43.95529691 324.45773778 -43.95540961 323.67631909 C-43.95904002 299.08551449 -43.97495914 274.49473937 -43.99826849 249.90394606 C-44.02286624 223.90639251 -44.03658447 197.90885581 -44.03777957 171.91129029 C-44.03795102 169.05718429 -44.03816645 166.20307831 -44.038414 163.34897232 C-44.03846977 162.64620896 -44.03852554 161.94344559 -44.038583 161.21938637 C-44.03973352 149.91107745 -44.05075571 138.60279878 -44.06530106 127.29450008 C-44.07966973 115.9269369 -44.08264853 104.55942343 -44.07486108 93.19184975 C-44.07095 87.03373473 -44.07190662 80.87572149 -44.08591843 74.71761894 C-44.09862969 69.07957384 -44.0974841 63.44170731 -44.08532771 57.80366255 C-44.08336591 55.76458504 -44.08647139 53.72549499 -44.09517208 51.68643509 C-44.18585389 28.99703937 -44.18585389 28.99703937 -37.77734375 18.8828125 C-37.29394531 18.10292969 -36.81054688 17.32304687 -36.3125 16.51953125 C-33.12008416 11.87530771 -30.2045038 8.53038849 -25.40234375 5.5078125 C-24.49871094 4.92644531 -23.59507812 4.34507812 -22.6640625 3.74609375 C-15.1878768 -0.18509264 -8.30019923 -0.07342298 0 0 Z " fill="#7A5B40" transform="translate(260.71484375,217.8046875)"/>
<path d="M0 0 C8.17332788 7.40615631 14.01923639 17.3785907 16.09033203 28.23266602 C16.349207 29.57446678 16.349207 29.57446678 16.61331177 30.94337463 C16.74091888 31.622061 16.868526 32.30074738 17 33 C18.93649414 32.97643433 18.93649414 32.97643433 20.91210938 32.95239258 C25.72780046 32.89785959 30.54346454 32.8635651 35.359375 32.83520508 C37.43884887 32.82017157 39.51829131 32.79973926 41.59765625 32.77368164 C44.59643334 32.73705864 47.59478911 32.72021889 50.59375 32.70703125 C51.51490601 32.69154739 52.43606201 32.67606354 53.38513184 32.66011047 C62.93831228 32.65765147 69.82476873 35.71967508 77 42 C83.85795461 49.22865486 84.45961795 56.23681801 84.43359375 65.77734375 C84.4388356 66.90266006 84.44407745 68.02797638 84.44947815 69.18739319 C84.45588296 71.5600604 84.45458141 73.93275942 84.44604492 76.30541992 C84.43753578 79.92229106 84.46631914 83.53758152 84.49804688 87.15429688 C84.49965916 89.46614536 84.49908083 91.77799663 84.49609375 94.08984375 C84.50732773 95.16403061 84.51856171 96.23821747 84.53013611 97.34495544 C84.45536326 105.45819098 82.85770556 110.79379376 77.4375 116.875 C71.37188365 122.16297323 66.20584527 122.14849072 58.42631531 122.12025452 C57.13358813 122.12153615 57.13358813 122.12153615 55.81474525 122.12284368 C52.92815209 122.12449026 50.0416171 122.11899055 47.1550293 122.11352539 C45.08535259 122.11324332 43.01567579 122.11340165 40.94599915 122.1139679 C35.32663098 122.11425508 29.70728411 122.1083711 24.0879209 122.10139394 C18.21558219 122.09514726 12.34324301 122.09455556 6.47090149 122.09336853 C-4.64955044 122.0902591 -15.76999256 122.08205092 -26.89044017 122.07201904 C-39.55053159 122.06084587 -52.21062347 122.05534441 -64.8707186 122.05032361 C-90.91381784 122.03986801 -116.95690837 122.02227605 -143 122 C-143 121.34 -143 120.68 -143 120 C-143.721875 119.938125 -144.44375 119.87625 -145.1875 119.8125 C-148.90815907 118.73764294 -150.45866366 116.8757227 -153 114 C-153.556875 113.401875 -154.11375 112.80375 -154.6875 112.1875 C-158.2178066 106.30365567 -158.29937906 99.51841071 -158.265625 92.85546875 C-158.26753845 92.00503494 -158.2694519 91.15460114 -158.27142334 90.27839661 C-158.2727765 88.48922426 -158.26914121 86.70004181 -158.26074219 84.91088867 C-158.25007035 82.20533612 -158.26064655 79.50045354 -158.2734375 76.79492188 C-158.29645175 51.02237425 -158.29645175 51.02237425 -149.46875 41.31640625 C-142.12260059 34.36875079 -133.46217074 32.38073575 -123.6171875 32.609375 C-122.67690704 32.61503479 -121.73662659 32.62069458 -120.76785278 32.62652588 C-117.80302154 32.6486835 -114.83945782 32.69883873 -111.875 32.75 C-109.84897595 32.77009173 -107.82293271 32.78833778 -105.796875 32.8046875 C-100.86410467 32.84848031 -95.93226623 32.91736118 -91 33 C-90.87198502 32.32090576 -90.74397003 31.64181152 -90.61207581 30.94213867 C-90.43917526 30.0472876 -90.26627472 29.15243652 -90.08813477 28.23046875 C-89.83423729 26.90245239 -89.83423729 26.90245239 -89.57521057 25.54760742 C-86.65342561 12.60702285 -77.725398 2.08504724 -67.125 -5.375 C-45.32329938 -19.12256918 -19.63778219 -15.95172598 0 0 Z " fill="#7B5C40" transform="translate(484,158)"/>
<path d="M0 0 C0.78378306 -0.0055344 1.56756613 -0.01106879 2.3751002 -0.0167709 C5.01011619 -0.03042008 7.64419194 -0.01538554 10.27919006 -0.00050354 C12.16474817 -0.00428521 14.0503035 -0.00978399 15.93585205 -0.01687622 C21.06399613 -0.03086895 26.19180613 -0.01963387 31.31993175 -0.00316501 C36.68058601 0.01065911 42.04122035 0.00422835 47.40188599 0.0007019 C56.40628967 -0.00200254 65.41056024 0.01149475 74.41493225 0.03465271 C84.83108078 0.06125582 95.24700658 0.06301296 105.66317743 0.05126435 C115.67396458 0.04049106 125.684671 0.04667064 135.69545174 0.06081963 C139.9597368 0.06658414 144.22396288 0.06649306 148.48824883 0.06175423 C153.50908375 0.05698761 158.5296743 0.06707309 163.55046272 0.08870888 C165.39515483 0.09428152 167.23987041 0.09473769 169.08456421 0.08975601 C171.59904794 0.08381635 174.11278123 0.09628263 176.62719727 0.11352539 C177.36056161 0.10751535 178.09392596 0.1015053 178.84951347 0.09531313 C181.95561207 0.13415485 184.09005978 0.34192746 186.82971287 1.86220551 C189.09681478 4.26354564 188.88475454 6.02388084 188.89466858 9.28611755 C188.90727722 10.47422531 188.91988586 11.66233307 188.93287659 12.88644409 C188.92477966 14.17083878 188.91668274 15.45523346 188.90834045 16.77854919 C188.91216736 18.09658035 188.91599426 19.41461151 188.91993713 20.77258301 C188.92583391 23.56276694 188.91726593 26.35243852 188.89857483 29.14256287 C188.875806 32.71513472 188.8888921 36.28650322 188.91286469 39.85903072 C188.93081758 43.26979931 188.91823654 46.68024643 188.90834045 50.09104919 C188.91643738 51.37341965 188.9245343 52.6557901 188.93287659 53.97702026 C188.91396362 55.76391014 188.91396362 55.76391014 188.89466858 57.5868988 C188.89148621 58.6348613 188.88830383 59.68282379 188.88502502 60.76254272 C188.22255951 64.33439965 187.26086533 65.3085557 184.37709045 67.50120544 C181.6867661 67.89424101 179.40513553 68.0422649 176.71658325 68.00914001 C175.94081843 68.01537998 175.16505361 68.02161994 174.36578077 68.02804899 C171.76385498 68.04401589 169.16286124 68.03136068 166.56092834 68.01878357 C164.69654798 68.0242031 162.8321719 68.03132481 160.96780396 68.0400238 C155.90164445 68.0582814 150.83581027 68.05117921 145.76964498 68.03850746 C140.4708513 68.02839093 135.17208576 68.03776953 129.87329102 68.04405212 C120.97322075 68.05133309 112.07328316 68.04172969 103.17323303 68.02268982 C92.88144225 68.00092694 82.58996849 68.00796645 72.29818541 68.02999544 C63.46580034 68.0481446 54.63351075 68.05070992 45.80111307 68.04024076 C40.52425753 68.03400233 35.24755102 68.03317974 29.97070503 68.04638672 C25.00889556 68.05793726 20.04749489 68.04993392 15.0857296 68.02680969 C13.26403101 68.02151807 11.44229804 68.02304411 9.6206131 68.03186035 C7.13480388 68.04278194 4.65030677 68.02909414 2.1645813 68.00914001 C1.44259381 68.0180629 0.72060632 68.02698579 -0.02325958 68.03617907 C-3.58124968 67.98073085 -5.53500915 67.55676788 -8.57078648 65.63783264 C-11.22090436 62.87858587 -11.24571601 61.48046182 -11.23814392 57.69456482 C-11.24744934 56.52655334 -11.25675476 55.35854187 -11.26634216 54.15513611 C-11.2499469 52.89777649 -11.23355164 51.64041687 -11.21665955 50.34495544 C-11.21669983 49.05053528 -11.21674011 47.75611511 -11.21678162 46.42247009 C-11.21512978 43.68519654 -11.1964599 40.94874339 -11.16490173 38.21165466 C-11.12522295 34.70761133 -11.12085692 31.20464193 -11.12836456 27.70041656 C-11.13217673 24.35263258 -11.11135024 21.00518632 -11.09165955 17.65745544 C-11.09145813 16.40009583 -11.09125671 15.14273621 -11.09104919 13.84727478 C-11.07513733 12.67926331 -11.05922546 11.51125183 -11.04283142 10.30784607 C-11.03441223 9.28066467 -11.02599304 8.25348328 -11.01731873 7.19517517 C-10.01603575 0.35601889 -6.16351605 -0.08047989 0 0 Z " fill="#FEF6EA" transform="translate(588.6229095458984,510.49879455566406)"/>
<path d="M0 0 C1.66324562 -0.01925285 1.66324562 -0.01925285 3.36009216 -0.03889465 C5.17550255 -0.04997505 5.17550255 -0.04997505 7.02758789 -0.0612793 C8.26763077 -0.06935104 9.50767365 -0.07742279 10.78529358 -0.08573914 C13.42086542 -0.09960703 16.05631108 -0.11061305 18.69189453 -0.11816406 C21.38158125 -0.12698032 24.07074394 -0.14774187 26.76025391 -0.1796875 C30.64119005 -0.22250865 34.52144431 -0.23855897 38.40258789 -0.2487793 C39.5946434 -0.26628738 40.78669891 -0.28379547 42.01487732 -0.30183411 C52.93578605 -0.27373891 61.74715522 2.65144167 69.81274414 10.17700195 C78.74144821 19.97113597 83.15311278 31.70589514 83.05325317 44.84570312 C83.05496202 45.68149965 83.05667087 46.51729618 83.05843151 47.37841988 C83.061707 50.15902604 83.05075489 52.93938704 83.03979492 55.7199707 C83.03923039 57.72112523 83.03954819 59.72228016 83.04067993 61.72343445 C83.0412528 67.14224587 83.02950912 72.56096841 83.01553202 77.97975922 C83.00301369 83.64787849 83.00185329 89.31599989 82.9994812 94.98413086 C82.99326968 105.71138054 82.97686327 116.43858937 82.95678222 127.16582108 C82.93441304 139.38100427 82.92342722 151.59618943 82.91339135 163.81138802 C82.89249678 188.93328196 82.85732715 214.05513967 82.81274414 239.17700195 C79.94255973 240.61209416 77.47730691 240.28858701 74.27368164 240.2746582 C72.32075195 240.26982422 72.32075195 240.26982422 70.32836914 240.26489258 C68.94816015 240.25653661 67.56795182 240.24807166 66.18774414 240.23950195 C64.79972489 240.23448697 63.41170392 240.22992406 62.02368164 240.22583008 C58.61999282 240.21401171 55.21638975 240.19753629 51.81274414 240.17700195 C50.24994082 237.0513953 50.67371735 233.72568145 50.68144226 230.29470825 C50.67932655 229.47094409 50.67721083 228.64717993 50.67503101 227.79845321 C50.66901231 225.02244198 50.67003248 222.24647597 50.67089844 219.47045898 C50.66786821 217.48653079 50.66434713 215.50260328 50.66036987 213.51867676 C50.65247045 209.23852587 50.64733206 204.95838336 50.64407921 200.67822647 C50.63818035 193.91394739 50.62165111 187.14972124 50.60273743 180.38546753 C50.59639979 178.07195476 50.59007417 175.75844196 50.58376026 173.44492912 C50.58059445 172.28620096 50.57742864 171.1274728 50.57416689 169.93363166 C50.53204652 154.1799663 50.49910529 138.42632534 50.48681641 122.67260742 C50.4784479 112.05389701 50.45600205 101.43531726 50.41746074 90.81667221 C50.39765891 85.19385137 50.38530916 79.57122603 50.39029503 73.94836807 C50.39492645 68.66074264 50.3812187 63.37348812 50.35328293 58.0859375 C50.34634568 56.14288424 50.34627164 54.19979283 50.3534832 52.25674057 C50.36232111 49.60846894 50.34676074 46.9614338 50.32499695 44.31326294 C50.33343949 43.54030699 50.34188202 42.76735104 50.35058039 41.97097218 C50.29707104 38.46139973 50.08340496 36.53328178 47.93138123 33.70050144 C45.32884749 31.82903471 43.88036876 31.66788576 40.69287109 31.64697266 C39.67534256 31.63048172 38.65781403 31.61399078 37.60945129 31.59700012 C36.51767075 31.59890854 35.4258902 31.60081696 34.30102539 31.6027832 C33.17705856 31.58861862 32.05309174 31.57445404 30.89506531 31.55986023 C27.30502752 31.51790986 23.71549276 31.50270581 20.12524414 31.48950195 C16.52451734 31.4604967 12.92391981 31.42602061 9.32328796 31.38700867 C7.08198378 31.36442882 4.84059918 31.34866606 2.59919739 31.34016418 C1.59112534 31.33312973 0.58305328 31.32609528 -0.45556641 31.31884766 C-1.3472905 31.31536819 -2.23901459 31.31188873 -3.15776062 31.30830383 C-5.18725586 31.17700195 -5.18725586 31.17700195 -6.18725586 30.17700195 C-6.28728875 28.04347022 -6.31806633 25.90662654 -6.32006836 23.77075195 C-6.32135742 22.47008789 -6.32264648 21.16942383 -6.32397461 19.8293457 C-6.32187988 19.14855957 -6.31978516 18.46777344 -6.31762695 17.76635742 C-6.31227826 15.6857168 -6.31757266 13.60529206 -6.32397461 11.5246582 C-6.32268555 10.22399414 -6.32139648 8.92333008 -6.32006836 7.58325195 C-6.31894043 6.37991211 -6.3178125 5.17657227 -6.31665039 3.93676758 C-6.09572241 -0.77525099 -4.23837507 0.04256555 0 0 Z " fill="#7A5C40" transform="translate(596.187255859375,217.822998046875)"/>
<path d="M0 0 C1.5631897 0.00785522 1.5631897 0.00785522 3.15795898 0.01586914 C4.28266602 0.0190918 5.40737305 0.02231445 6.56616211 0.02563477 C7.75016602 0.03401367 8.93416992 0.04239258 10.15405273 0.05102539 C11.34192383 0.05553711 12.52979492 0.06004883 13.75366211 0.06469727 C16.69967499 0.07652864 19.64558954 0.09301252 22.59155273 0.11352539 C26.1395766 6.78261355 28.72665275 13.62932896 31.25952148 20.73852539 C31.93126578 22.60352572 32.60301165 24.46852548 33.27483845 26.33349609 C34.21170897 28.93809256 35.1440474 31.54430197 36.07641602 34.1505127 C37.90543296 39.2603844 39.74238101 44.36741446 41.57980537 49.47426796 C42.03283891 50.73346568 42.485683 51.99273157 42.93833733 53.25206566 C46.7527862 63.86027279 50.67095597 74.42662454 54.6550293 84.97216797 C56.51808205 89.90420195 58.34384877 94.84937729 60.15405273 99.80102539 C60.40472 100.4744397 60.65538727 101.147854 60.91365051 101.8416748 C62.25928268 105.60846913 62.59155273 107.98525272 62.59155273 112.11352539 C55.00155273 112.11352539 47.41155273 112.11352539 39.59155273 112.11352539 C36.19899585 104.31981362 33.86873393 97.46318977 31.59155273 89.11352539 C17.73155273 89.44352539 3.87155273 89.77352539 -10.40844727 90.11352539 C-12.67028698 96.6494178 -12.67028698 96.6494178 -14.92578125 103.1875 C-15.34839233 104.40191772 -15.34839233 104.40191772 -15.77954102 105.64086914 C-16.21157837 106.88984985 -16.21157837 106.88984985 -16.65234375 108.1640625 C-17.40844727 110.11352539 -17.40844727 110.11352539 -18.40844727 111.11352539 C-20.11617084 111.20066371 -21.82743375 111.22052546 -23.53735352 111.21118164 C-25.0890625 111.20634766 -25.0890625 111.20634766 -26.67211914 111.20141602 C-27.76073242 111.19303711 -28.8493457 111.1846582 -29.97094727 111.17602539 C-31.60966797 111.16925781 -31.60966797 111.16925781 -33.28149414 111.16235352 C-35.99053222 111.15052366 -38.69946326 111.13404082 -41.40844727 111.11352539 C-40.87184181 104.23979243 -38.93854938 98.39017862 -36.53344727 91.95336914 C-36.13656204 90.8699675 -35.73967682 89.78656586 -35.33076477 88.67033386 C-34.03111756 85.12764438 -32.71984266 81.58938092 -31.40844727 78.05102539 C-30.50676093 75.60001755 -29.60597265 73.14867916 -28.70605469 70.69702148 C-27.32331724 66.9305261 -25.94026146 63.16416118 -24.55326843 59.39923096 C-21.44729981 50.96554217 -18.37703698 42.51945007 -15.33422852 34.06274414 C-14.93992645 32.96749924 -14.54562439 31.87225433 -14.13937378 30.74382019 C-12.62746685 26.54255586 -11.11638959 22.34099991 -9.60888672 18.13815308 C-8.58230818 15.27748386 -7.55236324 12.41804773 -6.52172852 9.55883789 C-6.21850174 8.71048874 -5.91527496 7.86213959 -5.6028595 6.98808289 C-3.13220351 0.14764061 -3.13220351 0.14764061 0 0 Z " fill="#7A5B3F" transform="translate(426.408447265625,331.886474609375)"/>
<path d="M0 0 C3.85254723 -0.2922343 7.70224308 -0.4685333 11.5625 -0.625 C12.64853516 -0.70878906 13.73457031 -0.79257812 14.85351562 -0.87890625 C22.75446412 -1.11905666 22.75446412 -1.11905666 26.08447266 1.87280273 C27.9397867 4.49539302 29.47178936 7.17504689 31 10 C32.20133396 11.87895501 33.41504531 13.75005028 34.640625 15.61328125 C35.84610793 17.51152548 37.04922557 19.41127381 38.25 21.3125 C39.16652344 22.75592773 39.16652344 22.75592773 40.1015625 24.22851562 C42.78297923 28.45847978 45.43577545 32.69768382 48 37 C51.44641786 32.08255012 54.61644886 27.02711453 57.63964844 21.84130859 C58.51036666 20.3544049 59.39272352 18.87426027 60.28613281 17.40087891 C62.27049414 14.10894174 63.97672197 11.06084489 65.35546875 7.45703125 C66.88818301 3.81152934 67.66868942 2.202289 71 0 C78.90676444 -1.33507901 87.05014464 -0.66333838 95 0 C94.58091511 6.02240507 92.7730035 9.58300163 89.375 14.5 C88.37974277 15.9866676 87.38497948 17.47366595 86.390625 18.9609375 C85.84986328 19.76112305 85.30910156 20.56130859 84.75195312 21.38574219 C81.48495859 26.26073906 78.31587946 31.19999816 75.125 36.125 C73.87957392 38.0455496 72.6322641 39.96487934 71.3828125 41.8828125 C70.52478027 43.20780762 70.52478027 43.20780762 69.64941406 44.55957031 C68.16532147 46.7553947 66.58154955 48.7976132 64.9296875 50.8671875 C62.68549633 53.74951135 62.68549633 53.74951135 63.390625 56.47265625 C64.18726563 57.72369141 64.18726563 57.72369141 65 59 C65.32677734 59.53608887 65.65355469 60.07217773 65.99023438 60.62451172 C67.20552559 62.58902042 68.47288542 64.51263617 69.75 66.4375 C70.73911166 67.947373 71.72734796 69.45781969 72.71484375 70.96875 C73.24319824 71.77570313 73.77155273 72.58265625 74.31591797 73.4140625 C77.34682186 78.06806859 80.32964795 82.75260676 83.3125 87.4375 C83.88645508 88.335896 84.46041016 89.23429199 85.05175781 90.15991211 C86.7116869 92.76682737 88.35906622 95.38109131 90 98 C90.5779834 98.91668457 91.1559668 99.83336914 91.75146484 100.77783203 C92.30141113 101.66712402 92.85135742 102.55641602 93.41796875 103.47265625 C93.91449951 104.2706665 94.41103027 105.06867676 94.92260742 105.89086914 C96 108 96 108 96 111 C91.98071577 111.29206649 87.96416166 111.46849455 83.9375 111.625 C82.80376953 111.70878906 81.67003906 111.79257812 80.50195312 111.87890625 C72.26288565 112.1191123 72.26288565 112.1191123 68.84692383 109.09204102 C66.9899948 106.48157557 65.4846337 103.8375915 64 101 C62.95087841 99.2705546 61.89499455 97.54519131 60.83203125 95.82421875 C59.82165775 94.11425588 58.81513191 92.4020136 57.8125 90.6875 C53.3575204 83.03581256 53.3575204 83.03581256 48 76 C47.64284912 76.60884033 47.28569824 77.21768066 46.91772461 77.8449707 C28.48925753 109.23007229 28.48925753 109.23007229 25 112 C22.45629883 112.34057617 22.45629883 112.34057617 19.45703125 112.29296875 C18.38388672 112.28330078 17.31074219 112.27363281 16.20507812 112.26367188 C15.08552734 112.23853516 13.96597656 112.21339844 12.8125 112.1875 C11.68134766 112.17396484 10.55019531 112.16042969 9.38476562 112.14648438 C6.58936683 112.11109958 3.79492108 112.06172948 1 112 C1.57238788 108.35793193 2.52619504 105.70163483 4.4140625 102.54296875 C4.9208252 101.68888428 5.42758789 100.8347998 5.94970703 99.95483398 C6.77897705 98.58500366 6.77897705 98.58500366 7.625 97.1875 C8.19460449 96.23496338 8.76420898 95.28242676 9.35107422 94.30102539 C15.58861502 83.92058996 22.02296093 73.6609632 28.48876953 63.42163086 C28.98747559 62.62249268 29.48618164 61.82335449 30 61 C30.60054199 60.1757251 31.20108398 59.3514502 31.81982422 58.50219727 C33.31690119 56.06256378 33.31690119 56.06256378 32.24562073 53.61509705 C31.06367773 51.13368711 29.78213548 48.93525418 28.25024414 46.65625 C27.69949722 45.83189453 27.14875031 45.00753906 26.58131409 44.15820312 C25.988582 43.28099609 25.39584991 42.40378906 24.78515625 41.5 C24.17361191 40.58669922 23.56206757 39.67339844 22.93199158 38.73242188 C20.9798396 35.8186721 19.02144056 32.90918908 17.0625 30 C15.10832468 27.09002773 13.15546147 24.17918338 11.20372009 21.26757812 C9.99003817 19.45785614 8.77474143 17.64921581 7.55763245 15.84179688 C6.02924413 13.56713111 4.51213419 11.28548901 3 9 C2.37407959 8.0615625 1.74815918 7.123125 1.10327148 6.15625 C0 4 0 4 0 0 Z " fill="#795A3F" transform="translate(495,332)"/>
<path d="M0 0 C0.87648193 -0.00145523 1.75296387 -0.00291046 2.65600586 -0.00440979 C4.50866012 -0.00275019 6.36132808 0.00881802 8.21386719 0.02954102 C11.0520271 0.05848694 13.88831864 0.05015368 16.7265625 0.03710938 C18.52605076 0.04334703 20.32553311 0.05173818 22.125 0.0625 C22.97505615 0.05956436 23.8251123 0.05662872 24.70092773 0.05360413 C30.58707449 0.14800162 30.58707449 0.14800162 32.78607273 1.75804138 C34.36580685 3.90909275 34.44153558 5.05675442 34.45018005 7.70898438 C34.46008469 8.5670166 34.46998932 9.42504883 34.48019409 10.30908203 C34.47344162 11.71649658 34.47344162 11.71649658 34.46655273 13.15234375 C34.47341599 14.14282715 34.48027924 15.13331055 34.48735046 16.15380859 C34.50568345 19.43471526 34.50177197 22.71514676 34.49609375 25.99609375 C34.50065212 28.27148597 34.50595666 30.54687681 34.51197815 32.82226562 C34.52092182 37.59380686 34.51847142 42.36518083 34.50854492 47.13671875 C34.49704841 53.26059321 34.51727128 59.38389167 34.54646206 65.50769043 C34.56477994 70.20706874 34.56454049 74.90630786 34.55882454 79.60571289 C34.55867081 81.8640219 34.56475729 84.12234004 34.57711601 86.38061523 C34.59194226 89.5340626 34.58141053 92.68643088 34.56420898 95.83984375 C34.57387695 96.77812012 34.58354492 97.71639648 34.59350586 98.68310547 C34.52158233 104.95846118 34.52158233 104.95846118 32.28703308 107.5753479 C29.99517323 108.52396065 28.43863932 108.87580184 25.96826172 108.88427734 C24.77715286 108.89846207 24.77715286 108.89846207 23.5619812 108.91293335 C22.71394928 108.90686066 21.86591736 108.90078796 20.9921875 108.89453125 C20.11474884 108.89740143 19.23731018 108.90027161 18.33328247 108.90322876 C16.48243564 108.90526702 14.63156715 108.89975377 12.78076172 108.88720703 C9.94059465 108.87111129 7.10184235 108.88708322 4.26171875 108.90625 C2.46353852 108.90426828 0.66535916 108.90042608 -1.1328125 108.89453125 C-1.98489288 108.90060394 -2.83697327 108.90667664 -3.71487427 108.91293335 C-6.10205078 108.88427734 -6.10205078 108.88427734 -9.9375 108.49609375 C-11.987468 105.42114176 -12.1885356 104.79550589 -12.19819641 101.32789612 C-12.20882362 100.05563675 -12.20882362 100.05563675 -12.21966553 98.75767517 C-12.21718811 97.83032059 -12.21471069 96.902966 -12.2121582 95.94750977 C-12.21726913 94.96838623 -12.22238007 93.9892627 -12.22764587 92.98046875 C-12.24157044 89.73691736 -12.24058295 86.49357777 -12.23828125 83.25 C-12.24216657 80.99942444 -12.2465009 78.74884962 -12.25126648 76.49827576 C-12.25873484 71.77804183 -12.25843291 67.0578827 -12.25317383 62.33764648 C-12.24737812 56.2834712 -12.26430986 50.22960173 -12.2875185 44.17547703 C-12.3022376 39.5266897 -12.30313003 34.87797634 -12.30000877 30.22916985 C-12.30052289 27.9968092 -12.30577756 25.76444451 -12.31582069 23.5321064 C-12.32813239 20.41255849 -12.32142488 17.2936103 -12.30981445 14.17407227 C-12.31745819 13.24874191 -12.32510193 12.32341156 -12.33297729 11.37004089 C-12.30319499 7.75678182 -12.28135509 5.18989213 -10.66203308 1.9225769 C-7.60913366 -0.6026919 -3.77966037 -0.04995037 0 0 Z " fill="#FEF7EA" transform="translate(742.9375,680.50390625)"/>
<path d="M0 0 C0.80672439 -0.0002987 1.61344878 -0.0005974 2.44461936 -0.00090516 C5.16303271 -0.00054773 7.88137551 0.00713784 10.59977722 0.01486206 C12.54267341 0.01682003 14.48557001 0.0184032 16.4284668 0.01963806 C22.82177665 0.02581131 29.21503698 0.04303536 35.60832214 0.06124878 C37.80667808 0.06703833 40.00503407 0.07280482 42.20339012 0.07854843 C51.3454353 0.10323128 60.487464 0.13079855 69.62947559 0.16589546 C82.74476345 0.21615162 95.85984261 0.24952434 108.97522527 0.259184 C118.18979295 0.26732199 127.40418601 0.29444948 136.61866397 0.33579051 C142.12583935 0.36000731 147.63274522 0.37584969 153.13997841 0.37152481 C158.3201915 0.36789355 163.49978335 0.38773248 168.67985344 0.42570305 C170.58215993 0.43555513 172.48453243 0.43687267 174.38684845 0.42907524 C176.98250131 0.4197287 179.57616411 0.4409862 182.17163086 0.4699707 C182.92611018 0.45997956 183.68058949 0.44998842 184.45793182 0.43969452 C188.42871255 0.51960279 190.10800974 0.97787377 193.22033215 3.53130913 C196.10136628 7.15317121 196.60721143 9.33771809 196.57316589 14.01046753 C196.04968489 17.72304988 193.8826274 20.50959977 191.27629089 23.11593628 C188.69536145 23.22480502 186.14078482 23.26817981 183.5589447 23.26983643 C182.33176377 23.27640981 182.33176377 23.27640981 181.07979131 23.28311598 C178.31683842 23.29655433 175.55391747 23.3026941 172.79093933 23.30880737 C170.81863255 23.31670441 168.84632722 23.32497311 166.87402344 23.33358765 C160.37791839 23.35985494 153.88180674 23.37512044 147.38566589 23.38937378 C145.15295151 23.39473162 142.92023718 23.40010912 140.68752289 23.40550613 C131.40228205 23.42714219 122.11704298 23.44588009 112.83178329 23.45712852 C99.50711602 23.47337418 86.18274009 23.50655878 72.85818267 23.56352937 C63.49935068 23.60218488 54.14059676 23.62175604 44.78168702 23.62704909 C39.18724463 23.63070871 33.59311265 23.64279464 27.99875641 23.67515182 C22.73576887 23.70515493 17.47328079 23.71157195 12.21022606 23.69976807 C10.27723775 23.69954668 8.34422678 23.70790548 6.41131783 23.72542191 C3.77413002 23.74802181 1.13876731 23.73986202 -1.49842834 23.72393799 C-2.26526263 23.73782008 -3.03209691 23.75170216 -3.82216859 23.76600492 C-7.78846626 23.70690499 -9.54786673 23.2552109 -12.69628525 20.76152992 C-15.73609701 16.79486719 -15.41405276 13.77607353 -15.22370911 8.94015503 C-14.72370911 6.11593628 -14.72370911 6.11593628 -12.34870911 2.92843628 C-8.08320208 -0.01679476 -5.05633801 -0.02254042 0 0 Z " fill="#7D5F44" transform="translate(317.7237091064453,498.8840637207031)"/>
<path d="M0 0 C0.81236793 0.00040686 1.62473586 0.00081373 2.461721 0.00123292 C5.19318579 0.0039377 7.92457417 0.01395509 10.65602112 0.02400208 C12.61053909 0.02759694 14.56505782 0.03080213 16.51957703 0.03364563 C21.83563734 0.04302945 27.15165314 0.05936479 32.46768832 0.07801604 C35.78660374 0.0896467 39.10552104 0.10031587 42.42444038 0.11075783 C52.80204196 0.14400184 63.17961188 0.18206948 73.55717319 0.22612303 C85.54922439 0.2768803 97.5411754 0.31110258 109.53331608 0.33130378 C118.79543006 0.34796464 128.05741507 0.37981474 137.31944233 0.42314988 C142.85503799 0.44868118 148.39047262 0.46758664 153.92613029 0.47052574 C159.13090505 0.4736709 164.33526105 0.49558713 169.53990555 0.5320816 C171.45230919 0.54221862 173.36476286 0.54551661 175.27718925 0.54155159 C177.88384594 0.53718199 180.48920176 0.5572148 183.09570312 0.58349609 C183.85630411 0.5764178 184.6169051 0.5693395 185.4005546 0.56204671 C188.89287632 0.62229522 190.7601566 0.83443975 193.5498209 3.01706409 C196.69583158 7.23211989 196.60811113 10.98185433 196.11134338 16.10920715 C194.90598697 18.94179472 194.02557438 20.47649589 191.50489807 22.22097874 C188.05730305 23.50035283 184.69298023 23.39483478 181.06446838 23.38336182 C179.83850952 23.39121683 179.83850952 23.39121683 178.58778381 23.39923054 C175.84558768 23.41424801 173.10357784 23.41493607 170.36134338 23.41560364 C168.39682194 23.42322378 166.43230349 23.43165103 164.4677887 23.44082642 C159.12907854 23.46278862 153.79042565 23.47157228 148.45167542 23.47665286 C145.11817238 23.48029345 141.78468443 23.48653185 138.45118713 23.49365425 C126.82748249 23.5181517 115.20382252 23.53120194 103.58009338 23.53474426 C92.73499975 23.53838298 81.89018853 23.56830178 71.04518127 23.61014885 C61.74064661 23.64479682 52.43620583 23.66029173 43.13160706 23.6609903 C37.57134899 23.66178479 32.0113787 23.67060271 26.45118713 23.69898796 C21.22425677 23.72507551 15.99785476 23.72742603 10.77088928 23.71133232 C8.85038607 23.70951057 6.92985311 23.71627359 5.00941467 23.73215103 C2.39171649 23.75247755 -0.22410946 23.74214035 -2.84178162 23.72393799 C-3.98749634 23.74373794 -3.98749634 23.74373794 -5.15635681 23.76393789 C-8.94983499 23.70349175 -10.56031771 23.42016095 -13.35838318 20.77024937 C-15.24354241 17.49208472 -15.42356794 15.31276621 -15.38865662 11.54670715 C-15.39896912 10.43166809 -15.40928162 9.31662903 -15.41990662 8.1678009 C-14.78315588 4.50180219 -13.80181261 3.35212617 -10.88865662 1.10920715 C-7.20930268 -0.11724416 -3.83001367 -0.02046126 0 0 Z " fill="#795B3F" transform="translate(317.88865661621094,625.8907928466797)"/>
<path d="M0 0 C1.22361888 -0.00891337 1.22361888 -0.00891337 2.47195733 -0.0180068 C5.21491745 -0.03539841 7.95770317 -0.03839868 10.70071411 -0.04138184 C12.66346613 -0.05063687 14.62621454 -0.06068601 16.58895874 -0.07147217 C21.92778813 -0.09773489 27.2665672 -0.1106126 32.60545111 -0.11949348 C35.93912403 -0.12535185 39.27278314 -0.13356081 42.60644913 -0.14250183 C53.03154846 -0.16985398 63.4566163 -0.18918688 73.88174903 -0.19690561 C85.92605422 -0.20587164 97.96990597 -0.24098834 110.01407325 -0.2989068 C119.31775373 -0.34209773 128.62130644 -0.36231182 137.92508614 -0.36498785 C143.48489112 -0.36708679 149.04426992 -0.37896149 154.60396957 -0.41462708 C159.8325942 -0.44751617 165.06047066 -0.45193592 170.28916168 -0.43434906 C172.20925267 -0.43280443 174.12938329 -0.44154524 176.04937363 -0.46126556 C178.66922968 -0.48659848 181.28641424 -0.47501787 183.90625 -0.45410156 C185.04861864 -0.47827078 185.04861864 -0.47827078 186.21406543 -0.50292826 C189.08798764 -0.449185 191.38672737 -0.27855195 193.67225671 1.56546497 C197.51097169 5.97110866 197.76471412 9.18256172 197.51370239 14.78088379 C197.08010864 17.28088379 197.08010864 17.28088379 195.20510864 19.90588379 C191.19104454 22.50321939 187.98967145 22.42918047 183.31843567 22.42805481 C182.10222376 22.43356984 182.10222376 22.43356984 180.86144191 22.43919629 C178.12923011 22.45025898 175.39705631 22.45408132 172.66482544 22.45788574 C170.71207558 22.46414839 168.75932693 22.47079501 166.80657959 22.47779846 C161.49042029 22.49522553 156.17427 22.50576466 150.85808921 22.51400399 C147.53900034 22.51915004 144.21991429 22.52522592 140.90082741 22.53151512 C130.52271272 22.5505711 120.14460516 22.56480193 109.76647633 22.57312709 C97.77434561 22.58290501 85.7823992 22.60923739 73.79033345 22.64962798 C64.52914352 22.6797537 55.26800652 22.69459256 46.00676852 22.6979081 C40.47163496 22.70026245 34.9366982 22.70927296 29.40161705 22.73436928 C24.19529759 22.75759329 18.98930531 22.76190609 13.78294754 22.75160789 C11.87092948 22.75111106 9.95889562 22.75747489 8.0469265 22.77116394 C5.4384667 22.78879629 2.83119215 22.78181986 0.22273254 22.76863098 C-0.53563772 22.77960023 -1.29400798 22.79056947 -2.07535917 22.80187112 C-5.69744156 22.75759142 -7.76780715 22.37601258 -10.86630535 20.43789959 C-14.10728588 17.0336856 -14.20167614 13.87601532 -14.14254761 9.28088379 C-13.817777 6.36364606 -12.72689572 4.55637076 -10.91989136 2.28088379 C-7.19350937 -0.20337087 -4.31381966 -0.00975888 0 0 Z " fill="#7A5B3F" transform="translate(316.9198913574219,562.7191162109375)"/>
<path d="M0 0 C0.78964645 0.00202423 1.57929291 0.00404846 2.39286804 0.00613403 C3.63425789 0.00350555 3.63425789 0.00350555 4.90072632 0.00082397 C7.65008104 -0.00359537 10.39937199 -0.00065627 13.14872742 0.00271606 C15.0506237 0.00204305 16.9525199 0.00107304 18.85441589 -0.00018311 C22.84591997 -0.00166019 26.83740171 0.00049482 30.8289032 0.00515747 C35.95738248 0.01085476 41.08580944 0.00757582 46.2142868 0.00158501 C50.14321795 -0.00202032 54.0721366 -0.00088215 58.00106812 0.0017128 C59.89259853 0.00238215 61.78413007 0.00155338 63.67565918 -0.00076675 C66.31449918 -0.00329282 68.95325323 0.00054665 71.59208679 0.00613403 C72.77655647 0.00309769 72.77655647 0.00309769 73.98495483 0 C79.3782149 0.02126605 79.3782149 0.02126605 80.49247742 1.13552856 C80.59131078 2.60031362 80.6232703 4.06975814 80.62528992 5.53787231 C80.62657898 6.42796997 80.62786804 7.31806763 80.62919617 8.23513794 C80.62532898 9.17164185 80.62146179 10.10814575 80.61747742 11.07302856 C80.6213446 12.00566528 80.62521179 12.938302 80.62919617 13.89920044 C80.6279071 14.79058716 80.62661804 15.68197388 80.62528992 16.60037231 C80.62416199 17.42142456 80.62303406 18.24247681 80.62187195 19.08840942 C80.49247742 21.13552856 80.49247742 21.13552856 79.49247742 23.13552856 C69.59247742 23.13552856 59.69247742 23.13552856 49.49247742 23.13552856 C49.49247742 52.17552856 49.49247742 81.21552856 49.49247742 111.13552856 C41.57247742 111.13552856 33.65247742 111.13552856 25.49247742 111.13552856 C23.69259343 109.33564457 24.37254737 106.8855298 24.36805725 104.48997498 C24.37165253 103.680056 24.3752478 102.87013702 24.37895203 102.03567505 C24.378806 101.18696838 24.37865997 100.33826172 24.37850952 99.46383667 C24.37920893 96.64473966 24.38700264 93.82570785 24.39482117 91.00662231 C24.39668525 89.0574904 24.3981092 87.10835802 24.39910889 85.15922546 C24.40293487 80.01846025 24.41276583 74.87772309 24.42381287 69.73696899 C24.43402527 64.49547709 24.43860614 59.25398067 24.44364929 54.01248169 C24.45438803 43.72014964 24.47198547 33.42784582 24.49247742 23.13552856 C14.59247742 23.13552856 4.69247742 23.13552856 -5.50752258 23.13552856 C-6.69971613 20.75114148 -6.63668281 19.25896855 -6.64033508 16.60037231 C-6.64162415 15.7089856 -6.64291321 14.81759888 -6.64424133 13.89920044 C-6.64037415 12.96656372 -6.63650696 12.033927 -6.63252258 11.07302856 C-6.63638977 10.13652466 -6.64025696 9.20002075 -6.64424133 8.23513794 C-6.64295227 7.34504028 -6.64166321 6.45494263 -6.64033508 5.53787231 C-6.63920715 4.717948 -6.63807922 3.89802368 -6.63691711 3.05325317 C-6.36011914 -1.04910168 -3.43380391 0.01353976 0 0 Z " fill="#795A3F" transform="translate(311.5075225830078,331.8644714355469)"/>
<path d="M0 0 C1.40148083 -0.00350273 2.80295768 -0.00916303 4.204422 -0.01681519 C8.0041919 -0.03105143 11.80323711 -0.0140138 15.6029377 0.00946999 C19.58176514 0.02959274 23.5605629 0.02369869 27.53942871 0.0213623 C34.22090592 0.02141586 40.9021002 0.04116348 47.58349609 0.07324219 C55.30492902 0.11013444 63.02599134 0.1189176 70.7475009 0.11194468 C78.17939978 0.10563643 85.61117177 0.11639989 93.04304504 0.13591003 C96.20402334 0.14407854 99.36493672 0.1467946 102.52592468 0.1452179 C106.24919374 0.14433805 109.97211138 0.15858151 113.6952877 0.18444443 C115.71124436 0.1950071 117.72726106 0.19093728 119.74324036 0.18643188 C121.54754768 0.20345657 121.54754768 0.20345657 123.38830566 0.2208252 C124.95344784 0.22641827 124.95344784 0.22641827 126.55020905 0.23212433 C129.83187004 0.67566365 131.72629546 1.67052538 134.38476562 3.61523438 C135.7890867 6.42387652 135.6682934 8.85906988 135.75976562 11.99023438 C135.80875 13.13234375 135.85773438 14.27445313 135.90820312 15.45117188 C135.38476562 18.61523438 135.38476562 18.61523438 133.22682953 20.78166294 C129.94242126 22.90061501 128.26064697 23.11566313 124.38830566 23.11643982 C123.18543411 23.12627396 121.98256256 23.13610809 120.74324036 23.14624023 C119.43191635 23.13657227 118.12059235 23.1269043 116.76953125 23.11694336 C115.36805174 23.12072832 113.96657596 23.12622982 112.56510925 23.13331604 C108.76544458 23.14726516 104.96623301 23.13610503 101.16659355 23.11960483 C97.1877597 23.10574225 93.20895183 23.11221578 89.23010254 23.11573792 C82.54867257 23.11843909 75.86742235 23.1049725 69.18603516 23.08178711 C61.4646101 23.05517787 53.74348555 23.05343058 46.02203035 23.06517547 C38.59014325 23.0759598 31.1583647 23.06976107 23.72648621 23.05562019 C20.56550018 23.04986605 17.40459375 23.04993856 14.24360657 23.05468559 C10.52035525 23.05946275 6.7974324 23.04932345 3.07424355 23.02773094 C1.05827529 23.01952434 -0.95773602 23.02600783 -2.97370911 23.03292847 C-4.17658066 23.02302383 -5.37945221 23.0131192 -6.61877441 23.00291443 C-7.66220253 23.00048453 -8.70563065 22.99805464 -9.7806778 22.99555111 C-13.06394152 22.55503066 -14.95613263 21.56091657 -17.61523438 19.61523438 C-18.94801669 16.94966974 -18.89482527 14.7787644 -18.99023438 11.80273438 C-19.03921875 10.76503906 -19.08820313 9.72734375 -19.13867188 8.65820312 C-18.5982738 5.51663521 -17.87845591 3.84834635 -15.54402161 1.66247559 C-10.93207092 -0.84159782 -5.0982036 -0.05156523 0 0 Z " fill="#7B5D41" transform="translate(321.615234375,689.384765625)"/>
<path d="M0 0 C0.87648193 -0.00287018 1.75296387 -0.00574036 2.65600586 -0.00869751 C4.50863288 -0.01073848 6.36128142 -0.00520628 8.21386719 0.00732422 C11.05192179 0.02337766 13.88855227 0.00747695 16.7265625 -0.01171875 C18.52604481 -0.00973632 20.32552624 -0.00589266 22.125 0 C22.97505615 -0.00607269 23.8251123 -0.01214539 24.70092773 -0.0184021 C30.60790562 0.0522235 30.60790562 0.0522235 32.78504944 1.71031189 C34.88419715 4.48429401 34.50980583 7.64542737 34.49609375 10.98828125 C34.5013356 11.72921524 34.50657745 12.47014923 34.51197815 13.23353577 C34.51839683 14.7994766 34.51706328 16.36546566 34.50854492 17.93139648 C34.50004142 20.32428142 34.52878278 22.71477327 34.56054688 25.10742188 C34.56215922 26.63020762 34.56158071 28.15299758 34.55859375 29.67578125 C34.57544472 30.74625954 34.57544472 30.74625954 34.59263611 31.83836365 C34.54830454 35.00798755 34.22959431 37.12138951 32.58251953 39.85229492 C28.84593614 42.14485282 25.55022803 41.93453086 21.24609375 41.859375 C20.39322281 41.85845856 19.54035187 41.85754211 18.66163635 41.8565979 C16.86201397 41.85056543 15.06240146 41.83482995 13.26293945 41.81005859 C10.50629765 41.77352097 7.75099944 41.76903952 4.99414062 41.76953125 C3.24478004 41.75970085 1.49542856 41.74804418 -0.25390625 41.734375 C-1.49147423 41.73103653 -1.49147423 41.73103653 -2.75404358 41.72763062 C-6.64774513 41.66291224 -8.62651287 41.60576225 -11.9375 39.3984375 C-12.24178811 36.6673082 -12.35755639 34.16669891 -12.3359375 31.43359375 C-12.33880768 30.64448105 -12.34167786 29.85536835 -12.34463501 29.04234314 C-12.346678 27.37205285 -12.34113169 25.70173877 -12.32861328 24.03149414 C-12.3125833 21.47422701 -12.32844202 18.91854544 -12.34765625 16.36132812 C-12.34567344 14.73957984 -12.34182898 13.11783254 -12.3359375 11.49609375 C-12.34201019 10.73039566 -12.34808289 9.96469757 -12.3543396 9.17579651 C-12.28394516 3.86026636 -12.28394516 3.86026636 -10.66104126 1.69685364 C-7.58862264 -0.61772856 -3.7017912 -0.02644512 0 0 Z " fill="#FDF6E9" transform="translate(666.9375,747.6015625)"/>
<path d="M0 0 C0.87648193 -0.00524185 1.75296387 -0.0104837 2.65600586 -0.0158844 C4.50861553 -0.02230619 6.36126596 -0.02096555 8.21386719 -0.01245117 C11.05216841 -0.00393724 13.88846001 -0.03270536 16.7265625 -0.06445312 C18.52604106 -0.06606509 20.3255232 -0.06548769 22.125 -0.0625 C23.40008423 -0.07935097 23.40008423 -0.07935097 24.70092773 -0.09654236 C30.46274865 -0.02820254 30.46274865 -0.02820254 33.09399414 1.99780273 C34.40876855 5.30445872 34.51104199 8.39578957 34.49609375 11.90234375 C34.5013356 12.61966675 34.50657745 13.33698975 34.51197815 14.0760498 C34.51838642 15.58893543 34.51707678 17.10187096 34.50854492 18.61474609 C34.50002666 20.92635895 34.52882027 23.23550564 34.56054688 25.546875 C34.56215891 27.01953051 34.56158132 28.49219039 34.55859375 29.96484375 C34.57544472 30.99780579 34.57544472 30.99780579 34.59263611 32.05163574 C34.54754904 35.1635386 34.20633379 37.19665475 32.58251953 39.87158203 C28.84821324 42.18625861 25.55835899 41.96982908 21.24609375 41.89453125 C20.39322281 41.89361481 19.54035187 41.89269836 18.66163635 41.89175415 C16.86201397 41.88572168 15.06240146 41.8699862 13.26293945 41.84521484 C10.50629765 41.80867722 7.75099944 41.80419577 4.99414062 41.8046875 C3.24478004 41.7948571 1.49542856 41.78320043 -0.25390625 41.76953125 C-1.49147423 41.76619278 -1.49147423 41.76619278 -2.75404358 41.76278687 C-6.64774513 41.69806849 -8.62651287 41.6409185 -11.9375 39.43359375 C-12.24178811 36.70246445 -12.35755639 34.20185516 -12.3359375 31.46875 C-12.33880768 30.6796373 -12.34167786 29.8905246 -12.34463501 29.07749939 C-12.346678 27.4072091 -12.34113169 25.73689502 -12.32861328 24.06665039 C-12.3125833 21.50938326 -12.32844202 18.95370169 -12.34765625 16.39648438 C-12.34567344 14.77473609 -12.34182898 13.15298879 -12.3359375 11.53125 C-12.34201019 10.76555191 -12.34808289 9.99985382 -12.3543396 9.21095276 C-12.28394153 3.89514859 -12.28394153 3.89514859 -10.66104126 1.73300171 C-7.58933668 -0.5828102 -3.70344704 -0.01278972 0 0 Z " fill="#FCF5E9" transform="translate(666.9375,680.56640625)"/>
<path d="M0 0 C3.08674818 -0.31630043 5.96857107 -0.44393611 9.05859375 -0.43359375 C10.40873314 -0.44145653 10.40873314 -0.44145653 11.78614807 -0.44947815 C13.69181282 -0.45590815 15.59751721 -0.45454874 17.50317383 -0.44604492 C20.422756 -0.43754294 23.34037738 -0.46626887 26.25976562 -0.49804688 C28.10937441 -0.49965911 29.95898667 -0.49908094 31.80859375 -0.49609375 C33.12119423 -0.51294472 33.12119423 -0.51294472 34.46031189 -0.53013611 C40.39562593 -0.46174871 40.39562593 -0.46174871 43.04736328 1.56420898 C44.34101802 4.87194688 44.44851998 7.96735756 44.43359375 11.46875 C44.4388356 12.186073 44.44407745 12.903396 44.44947815 13.64245605 C44.45588642 15.15534168 44.45457678 16.66827721 44.44604492 18.18115234 C44.43752666 20.4927652 44.46632027 22.80191189 44.49804688 25.11328125 C44.49965891 26.58593676 44.49908132 28.05859664 44.49609375 29.53125 C44.51294472 30.56421204 44.51294472 30.56421204 44.53013611 31.61804199 C44.48491268 34.73935688 44.14707029 36.7605157 42.50415039 39.43579102 C38.91427022 41.6781974 35.53995899 41.55384606 31.4375 41.49609375 C30.19504517 41.4982766 30.19504517 41.4982766 28.92749023 41.50050354 C27.17916338 41.49884621 25.43082168 41.48730341 23.68261719 41.46655273 C21.00913414 41.43759892 18.3376349 41.44594616 15.6640625 41.45898438 C13.96353205 41.45274656 12.26300784 41.44435528 10.5625 41.43359375 C9.36548462 41.43799721 9.36548462 41.43799721 8.14428711 41.44248962 C5.01825383 41.38944998 2.39629662 41.16394621 -0.50634766 39.96313477 C-2.8164355 36.92694379 -2.53190166 33.81376392 -2.4609375 30.15625 C-2.46002106 29.39074829 -2.45910461 28.62524658 -2.4581604 27.83654785 C-2.45212266 26.21925653 -2.43637119 24.60197648 -2.41162109 22.98486328 C-2.37513295 20.5090211 -2.37060158 18.03467662 -2.37109375 15.55859375 C-2.36126157 13.98696623 -2.34960412 12.41534885 -2.3359375 10.84375 C-2.33259903 9.73271912 -2.33259903 9.73271912 -2.32919312 8.59924316 C-2.26030942 4.8698461 -2.12082608 3.18123913 0 0 Z " fill="#FDF6E9" transform="translate(580,748)"/>
<path d="M0 0 C0.87648193 -0.00524185 1.75296387 -0.0104837 2.65600586 -0.0158844 C4.50861553 -0.02230619 6.36126596 -0.02096555 8.21386719 -0.01245117 C11.05216841 -0.00393724 13.88846001 -0.03270536 16.7265625 -0.06445312 C18.52604106 -0.06606509 20.3255232 -0.06548769 22.125 -0.0625 C23.40008423 -0.07935097 23.40008423 -0.07935097 24.70092773 -0.09654236 C30.45650455 -0.0282766 30.45650455 -0.0282766 33.09399414 1.98193359 C34.43257088 5.37038522 34.51086279 8.56590277 34.49609375 12.15625 C34.5013356 12.89814072 34.50657745 13.64003143 34.51197815 14.40440369 C34.51838675 15.96856436 34.51707636 17.5327733 34.50854492 19.09692383 C34.50001488 21.49191649 34.52883962 23.88453856 34.56054688 26.27929688 C34.56215854 27.80078054 34.56158201 29.32226842 34.55859375 30.84375 C34.57544472 31.91726463 34.57544472 31.91726463 34.59263611 33.01246643 C34.55063116 36.00162675 34.41696028 37.96669085 32.58251953 40.38305664 C28.81199718 41.95489908 25.29363719 41.86189621 21.24609375 41.83203125 C19.96678734 41.83633652 19.96678734 41.83633652 18.66163635 41.84072876 C16.86206395 41.84276698 15.06246927 41.83725403 13.26293945 41.82470703 C10.50617091 41.80862974 7.75086404 41.82457365 4.99414062 41.84375 C3.24478843 41.84176791 1.49543714 41.83792495 -0.25390625 41.83203125 C-1.07895157 41.83810394 -1.90399689 41.84417664 -2.75404358 41.85043335 C-8.48199631 41.7798742 -8.48199631 41.7798742 -10.65431213 40.12844849 C-12.79816265 37.29681697 -12.36390854 34.00147596 -12.3359375 30.58984375 C-12.33880768 29.82434204 -12.34167786 29.05884033 -12.34463501 28.2701416 C-12.346675 26.65290588 -12.34114963 25.03564545 -12.32861328 23.41845703 C-12.31255758 20.94247284 -12.32846297 18.4681209 -12.34765625 15.9921875 C-12.34567381 14.42056931 -12.3418301 12.84895214 -12.3359375 11.27734375 C-12.34201019 10.53665649 -12.34808289 9.79596924 -12.3543396 9.03283691 C-12.2839864 3.89338179 -12.2839864 3.89338179 -10.66104126 1.73973083 C-7.59253969 -0.58564645 -3.70553988 -0.01279695 0 0 Z " fill="#FCF5E9" transform="translate(589.9375,680.56640625)"/>
<path d="M0 0 C0.73565186 -0.00238678 1.47130371 -0.00477356 2.22924805 -0.00723267 C3.06351318 -0.01668915 3.89777832 -0.02614563 4.75732422 -0.03588867 C6.11047729 -0.02677963 6.11047729 -0.02677963 7.4909668 -0.01748657 C8.87795776 -0.02179184 8.87795776 -0.02179184 10.29296875 -0.02618408 C12.24992484 -0.02822757 14.20690122 -0.02267789 16.16381836 -0.01016235 C19.16655973 0.00588728 22.167955 -0.01000144 25.1706543 -0.02920532 C27.06909478 -0.02722294 28.96753442 -0.02337937 30.8659668 -0.01748657 C31.76806885 -0.02355927 32.6701709 -0.02963196 33.59960938 -0.03588867 C34.43387451 -0.02643219 35.26813965 -0.01697571 36.12768555 -0.00723267 C37.23116333 -0.0036525 37.23116333 -0.0036525 38.35693359 0 C40.1784668 0.38095093 40.1784668 0.38095093 42.1784668 3.38095093 C42.36194528 5.97159334 42.43470609 8.45186242 42.40893555 11.04110718 C42.40847733 11.78678452 42.4080191 12.53246185 42.407547 13.30073547 C42.40452891 14.87509759 42.39665581 16.44945684 42.38427734 18.02377319 C42.36600909 20.43786148 42.36376781 22.85156632 42.36401367 25.26571655 C42.35909869 26.79501675 42.35327046 28.32431435 42.34643555 29.85360718 C42.34532272 30.57758194 42.3442099 31.3015567 42.34306335 32.04747009 C42.2945509 37.14878273 42.2945509 37.14878273 41.1784668 39.38095093 C37.3449698 40.65878326 33.70997203 40.56292977 29.71362305 40.58407593 C28.46904579 40.59262604 28.46904579 40.59262604 27.19932556 40.60134888 C25.44507113 40.61079016 23.69079904 40.6173294 21.93652344 40.6211853 C19.2544873 40.63090194 16.5732141 40.66193733 13.89135742 40.69345093 C12.18628384 40.69998021 10.48120479 40.70523097 8.77612305 40.70907593 C7.97497574 40.72142273 7.17382843 40.73376953 6.34840393 40.74649048 C3.20072642 40.73390863 0.59166387 40.55290525 -2.33007812 39.33700562 C-4.60474058 36.35376849 -4.35437945 33.3526987 -4.2824707 29.75595093 C-4.28155426 29.01264526 -4.28063782 28.2693396 -4.2796936 27.50350952 C-4.27365653 25.93329475 -4.25790704 24.36309156 -4.2331543 22.7930603 C-4.19666503 20.38963387 -4.1921348 17.98775032 -4.19262695 15.58407593 C-4.18279474 14.05802094 -4.17113728 12.53197639 -4.1574707 11.00595093 C-4.15524506 10.28713745 -4.15301941 9.56832397 -4.15072632 8.82772827 C-3.9987151 0.83628134 -3.9987151 0.83628134 0 0 Z " fill="#FEF7EB" transform="translate(734.821533203125,614.6190490722656)"/>
<path d="M0 0 C1.27812057 0.00136711 1.27812057 0.00136711 2.58206177 0.00276184 C3.45758698 -0.00152328 4.33311218 -0.00580841 5.23516846 -0.01022339 C7.08956029 -0.0159725 8.94397468 -0.01646269 10.79837036 -0.01213074 C13.63421254 -0.00897711 16.46900541 -0.03240016 19.30471802 -0.05778503 C21.10549795 -0.06005862 22.90628069 -0.06076125 24.70706177 -0.05973816 C25.55509369 -0.06894791 26.40312561 -0.07815765 27.27685547 -0.08764648 C30.6277504 -0.06136171 33.19519537 0.0631657 36.31106567 1.34968567 C38.55033298 4.33351121 38.34899589 7.34450754 38.30862427 10.92854309 C38.31245117 11.67184875 38.31627808 12.41515442 38.32022095 13.1809845 C38.32294063 14.75114803 38.31557527 16.32135682 38.29885864 17.89143372 C38.2774463 20.29545553 38.29865461 22.69648927 38.32424927 25.10041809 C38.321606 26.62646636 38.31648102 28.15251276 38.30862427 29.67854309 C38.31672119 30.39735657 38.32481812 31.11617004 38.3331604 31.85676575 C38.27685503 34.85228352 38.13246509 36.83545021 36.29519653 39.25740051 C32.52280093 40.82481205 29.00767096 40.71210764 24.96096802 40.66682434 C24.10809708 40.66732285 23.25522614 40.66782135 22.37651062 40.66833496 C20.57692123 40.66599819 18.77732835 40.65629307 16.97781372 40.63972473 C14.2212509 40.61609775 11.46565348 40.61917095 8.70901489 40.62580872 C6.95966016 40.62023284 5.2103095 40.61312352 3.46096802 40.60432434 C2.6359227 40.60523575 1.81087738 40.60614716 0.96083069 40.60708618 C-2.93916566 40.55866079 -4.90545943 40.5149873 -8.22262573 38.30354309 C-8.51439843 35.5606884 -8.61868371 33.04696771 -8.58590698 30.30354309 C-8.58640549 29.51205872 -8.58690399 28.72057434 -8.5874176 27.90510559 C-8.58507562 26.2306009 -8.57533975 24.5560928 -8.55880737 22.88166809 C-8.53521849 20.31364069 -8.53824461 17.74665123 -8.54489136 15.17854309 C-8.53931461 13.55353688 -8.53220475 11.92853506 -8.52340698 10.30354309 C-8.52431839 9.53268372 -8.5252298 8.76182434 -8.52616882 7.96760559 C-8.43195762 0.90928042 -6.94532027 0.08403853 0 0 Z " fill="#FEF7EB" transform="translate(663.2226257324219,614.6964569091797)"/>
<path d="M0 0 C3.08698797 -0.30390136 5.96955928 -0.41982496 9.05859375 -0.3984375 C9.95868668 -0.40130768 10.8587796 -0.40417786 11.78614807 -0.40713501 C13.69182971 -0.40917859 15.59753219 -0.40362823 17.50317383 -0.39111328 C20.42251511 -0.37508229 23.34046796 -0.39094224 26.25976562 -0.41015625 C28.10937806 -0.4081735 29.95898963 -0.40432918 31.80859375 -0.3984375 C32.68366074 -0.40451019 33.55872772 -0.41058289 34.46031189 -0.4168396 C35.68156517 -0.40265488 35.68156517 -0.40265488 36.92749023 -0.38818359 C38.00098976 -0.38460342 38.00098976 -0.38460342 39.09617615 -0.38095093 C41.59000822 0.11805934 42.47869947 0.98958456 44 3 C44.37231445 6.21459961 44.37231445 6.21459961 44.36328125 10.15234375 C44.36402901 11.1971566 44.36402901 11.1971566 44.36479187 12.26307678 C44.36245363 13.73490249 44.35273966 15.20673237 44.33618164 16.6784668 C44.31262072 18.92598435 44.31561808 21.17231244 44.32226562 23.41992188 C44.27443517 35.69551827 44.27443517 35.69551827 42 39 C38.75752402 40.62123799 35.19651294 40.18438854 31.6328125 40.203125 C30.38611282 40.21167511 30.38611282 40.21167511 29.11422729 40.22039795 C27.35399653 40.22985146 25.59374803 40.23638332 23.83349609 40.24023438 C21.14258887 40.24993658 18.45244652 40.28095456 15.76171875 40.3125 C14.05208787 40.31903043 12.34245153 40.32428075 10.6328125 40.328125 C9.82852814 40.3404718 9.02424377 40.3528186 8.19558716 40.36553955 C5.03937261 40.35297759 2.41946821 40.17441132 -0.51074219 38.95605469 C-2.78249862 35.97223296 -2.53282679 32.97077425 -2.4609375 29.375 C-2.46002106 28.63169434 -2.45910461 27.88838867 -2.4581604 27.12255859 C-2.45212333 25.55234383 -2.43637384 23.98214064 -2.41162109 22.41210938 C-2.37513183 20.00868294 -2.3706016 17.60679939 -2.37109375 15.203125 C-2.36126154 13.67707001 -2.34960408 12.15102547 -2.3359375 10.625 C-2.33371185 9.90618652 -2.33148621 9.18737305 -2.32919312 8.44677734 C-2.25908943 4.76132658 -2.09847935 3.14771903 0 0 Z " fill="#FDF6EA" transform="translate(580,615)"/>
<path d="M0 0 C5.10090038 2.36827518 9.59641539 6.65299054 11.8125 11.9375 C11.874375 12.618125 11.93625 13.29875 12 14 C12.1546875 15.60875 12.1546875 15.60875 12.3125 17.25 C11.82511018 23.09867787 9.76222269 27.28296251 5.5625 31.375 C0.60899226 34.51624881 -3.08017212 35.59198279 -9 35 C-15.65213648 32.91768994 -19.5724457 30.23942454 -23.078125 24.1171875 C-25.08446278 19.50941176 -24.49863902 14.55824694 -23 9.875 C-16.76449058 0.91145521 -11.02357567 -1.79888637 0 0 Z " fill="#FBF4E7" transform="translate(453,178)"/>
<path d="M0 0 C0.66 0 1.32 0 2 0 C3.71473619 5.07010096 5.42357347 10.14213679 7.12695312 15.21606445 C7.70736206 16.94219674 8.28938474 18.66778728 8.87304688 20.39282227 C9.71127461 22.87115377 10.54369672 25.35136985 11.375 27.83203125 C11.63748535 28.60400345 11.8999707 29.37597565 12.17041016 30.17134094 C13.1894816 33.22759412 14 35.75552755 14 39 C5.42 39 -3.16 39 -12 39 C-10.72108908 33.24490084 -9.47858184 28.07118467 -7.6171875 22.55859375 C-7.39805695 21.90544693 -7.17892639 21.25230011 -6.95315552 20.57936096 C-6.26471919 18.53060137 -5.56999725 16.48404199 -4.875 14.4375 C-4.40192249 13.03334498 -3.92926287 11.6290491 -3.45703125 10.22460938 C-2.30949994 6.81476903 -1.15632848 3.40686863 0 0 Z " fill="#FBF5E8" transform="translate(436,361)"/>
<path d="M0 0 C18.48 0 36.96 0 56 0 C56 0.33 56 0.66 56 1 C38.18 1 20.36 1 2 1 C2 9.91 2 18.82 2 28 C7.27097656 27.96519531 7.27097656 27.96519531 12.6484375 27.9296875 C16.04068643 27.91410325 19.43293141 27.90195151 22.82519531 27.89013672 C25.18816911 27.88006076 27.55113039 27.86639971 29.9140625 27.84912109 C33.30471888 27.82494276 36.69521084 27.81353301 40.0859375 27.8046875 C41.14743011 27.79436493 42.20892273 27.78404236 43.30258179 27.77340698 C44.77388046 27.77318039 44.77388046 27.77318039 46.27490234 27.77294922 C47.14094086 27.768508 48.00697937 27.76406677 48.89926147 27.75949097 C51 28 51 28 53 30 C45.61271898 30.02526692 38.22544902 30.0428316 30.83813477 30.05493164 C28.32283105 30.05997363 25.80753028 30.06680703 23.29223633 30.07543945 C19.68570225 30.08751094 16.07920677 30.09322949 12.47265625 30.09765625 C10.77424339 30.10539818 10.77424339 30.10539818 9.04151917 30.11329651 C8.00051559 30.11337204 6.95951202 30.11344757 5.88696289 30.11352539 C4.96540909 30.115746 4.04385529 30.11796661 3.09437561 30.12025452 C1 30 1 30 0 29 C-0.08775605 26.85441173 -0.10695219 24.70595579 -0.09765625 22.55859375 C-0.09515869 21.38353271 -0.09266113 20.20847168 -0.09008789 18.99780273 C-0.08098389 17.49290283 -0.07187988 15.98800293 -0.0625 14.4375 C-0.041875 9.673125 -0.02125 4.90875 0 0 Z " fill="#725439" transform="translate(590,219)"/>
<path d="M0 0 C11.06534858 -0.02312283 22.13069145 -0.04091478 33.19605923 -0.05181217 C38.33359566 -0.05704113 43.47111563 -0.06413901 48.60864258 -0.07543945 C53.5623141 -0.08626787 58.51596974 -0.09227674 63.46965218 -0.09487724 C65.36397616 -0.09673157 67.25829924 -0.10035234 69.1526165 -0.10573006 C71.79634386 -0.11293989 74.44000471 -0.11399097 77.08374023 -0.11352539 C77.87495773 -0.11712067 78.66617523 -0.12071594 79.48136902 -0.12442017 C84.88594784 -0.11405216 84.88594784 -0.11405216 86 1 C86.08669432 2.4887186 86.10703494 3.981445 86.09765625 5.47265625 C86.09282227 6.82133789 86.09282227 6.82133789 86.08789062 8.19726562 C86.07532227 9.61555664 86.07532227 9.61555664 86.0625 11.0625 C86.05798828 12.01189453 86.05347656 12.96128906 86.04882812 13.93945312 C86.0370011 16.29303065 86.02052025 18.64648477 86 21 C85.67 21 85.34 21 85 21 C84.505 12.09 84.505 12.09 84 3 C56.28 2.67 28.56 2.34 0 2 C0 1.34 0 0.68 0 0 Z " fill="#715B48" transform="translate(306,332)"/>
<path d="M0 0 C14.85 0.33 29.7 0.66 45 1 C44.67 1.99 44.34 2.98 44 4 C29.15 4 14.3 4 -1 4 C-0.67 2.68 -0.34 1.36 0 0 Z " fill="#8D7058" transform="translate(500,190)"/>
<path d="M0 0 C0.66 0.33 1.32 0.66 2 1 C3.37243855 1.11221572 4.74988235 1.16646675 6.12670898 1.18945312 C6.97776718 1.20617065 7.82882538 1.22288818 8.70567322 1.2401123 C9.62651199 1.25368774 10.54735077 1.26726318 11.49609375 1.28125 C12.91282127 1.30886414 12.91282127 1.30886414 14.35816956 1.33703613 C17.38454862 1.3958945 20.41098463 1.4486584 23.4375 1.5 C27.41548566 1.56760017 31.39328917 1.64129511 35.37109375 1.71875 C36.28990829 1.73232544 37.20872284 1.74590088 38.15538025 1.7598877 C39.43669579 1.78496399 39.43669579 1.78496399 40.74389648 1.81054688 C41.87069069 1.82933899 41.87069069 1.82933899 43.02024841 1.84851074 C45 2 45 2 48 3 C47.67 5.31 47.34 7.62 47 10 C44.64046906 7.64046906 44.50858587 6.22104383 44 3 C38.07293681 3.04408151 32.14694617 3.11383922 26.22045898 3.20751953 C24.20394421 3.2357634 22.18731802 3.25696088 20.1706543 3.27099609 C17.2733441 3.29237846 14.37737828 3.33900366 11.48046875 3.390625 C10.12564644 3.39246796 10.12564644 3.39246796 8.74345398 3.39434814 C3.81125182 3.36412008 3.81125182 3.36412008 -0.0925293 6.03808594 C-0.39199463 6.68551758 -0.69145996 7.33294922 -1 8 C-0.67 5.36 -0.34 2.72 0 0 Z " fill="#644528" transform="translate(414,418)"/>
<path d="M0 0 C1.10083923 0.00015106 2.20167847 0.00030212 3.33587646 0.00045776 C5.10949554 0.01594162 5.10949554 0.01594162 6.91894531 0.03173828 C8.74162933 0.03598312 8.74162933 0.03598312 10.60113525 0.04031372 C14.48321366 0.05151124 18.3650616 0.07661544 22.24707031 0.10205078 C24.8785774 0.11208112 27.5100881 0.12120687 30.14160156 0.12939453 C36.59350315 0.15144921 43.04527027 0.18492274 49.49707031 0.22705078 C49.49707031 0.55705078 49.49707031 0.88705078 49.49707031 1.22705078 C32.00707031 1.22705078 14.51707031 1.22705078 -3.50292969 1.22705078 C-3.50292969 1.88705078 -3.50292969 2.54705078 -3.50292969 3.22705078 C-6.47292969 2.73205078 -6.47292969 2.73205078 -9.50292969 2.22705078 C-6.22481107 0.27568039 -3.79055332 -0.01738786 0 0 Z " fill="#7F6653" transform="translate(253.5029296875,217.77294921875)"/>
<path d="M0 0 C0 0.66 0 1.32 0 2 C1.65 2 3.3 2 5 2 C5 2.33 5 2.66 5 3 C4.02417969 3.01417969 3.04835938 3.02835937 2.04296875 3.04296875 C0.13451172 3.11451172 0.13451172 3.11451172 -1.8125 3.1875 C-3.70935547 3.23970703 -3.70935547 3.23970703 -5.64453125 3.29296875 C-9.1320735 3.66042835 -9.1320735 3.66042835 -10.90625 6.34375 C-12.09797499 9.23793927 -12.63920806 11.89718933 -13 15 C-13.33 15 -13.66 15 -14 15 C-14.66624906 11.97219488 -15.13525522 9.105668 -15 6 C-10.34310948 -0.04137148 -7.12014516 -0.11484105 0 0 Z " fill="#7B634C" transform="translate(318,499)"/>
<path d="M0 0 C7.92 0 15.84 0 24 0 C24.33 1.32 24.66 2.64 25 4 C24.67 3.34 24.34 2.68 24 2 C16.08 2.33 8.16 2.66 0 3 C0 2.01 0 1.02 0 0 Z " fill="#745F4D" transform="translate(495,332)"/>
<path d="M0 0 C0 0.33 0 0.66 0 1 C-3.96 1 -7.92 1 -12 1 C-12 1.66 -12 2.32 -12 3 C-13.32 3 -14.64 3 -16 3 C-16.33 3.66 -16.66 4.32 -17 5 C-18.99609375 5.484375 -18.99609375 5.484375 -21.4375 5.75 C-22.24058594 5.84796875 -23.04367187 5.9459375 -23.87109375 6.046875 C-26 6 -26 6 -28 4 C-18.56172128 0.19157174 -10.12175252 -0.13698612 0 0 Z " fill="#87715B" transform="translate(454,144)"/>
<path d="M0 0 C0.66 0 1.32 0 2 0 C2 11.22 2 22.44 2 34 C1.67 34 1.34 34 1 34 C0.67 24.76 0.34 15.52 0 6 C-0.66 5.67 -1.32 5.34 -2 5 C-1.34 5 -0.68 5 0 5 C0 3.35 0 1.7 0 0 Z " fill="#FBF2E1" transform="translate(699,618)"/>
<path d="M0 0 C0.99 0 1.98 0 3 0 C2.69201674 1.48011371 2.378482 2.95907325 2.0625 4.4375 C1.88847656 5.26121094 1.71445312 6.08492188 1.53515625 6.93359375 C1 9 1 9 0 10 C-1.70772358 10.08713831 -3.41898649 10.10700007 -5.12890625 10.09765625 C-6.68061523 10.09282227 -6.68061523 10.09282227 -8.26367188 10.08789062 C-9.35228516 10.07951172 -10.44089844 10.07113281 -11.5625 10.0625 C-13.2012207 10.05573242 -13.2012207 10.05573242 -14.87304688 10.04882812 C-17.58208495 10.03699826 -20.29101599 10.02051543 -23 10 C-22.67 9.01 -22.34 8.02 -22 7 C-22 7.66 -22 8.32 -22 9 C-11.605 8.505 -11.605 8.505 -1 8 C-0.67 5.36 -0.34 2.72 0 0 Z " fill="#583B20" transform="translate(408,433)"/>
<path d="M0 0 C0.33 0 0.66 0 1 0 C1.09893453 4.07496103 1.17149694 8.14945656 1.21972656 12.2253418 C1.23983275 13.61153338 1.26712245 14.99764025 1.30175781 16.38354492 C1.35031225 18.37641906 1.37083972 20.36991389 1.390625 22.36328125 C1.41157227 23.56251221 1.43251953 24.76174316 1.45410156 25.99731445 C1 29 1 29 -1.02441406 30.91479492 C-1.67635742 31.2729126 -2.32830078 31.63103027 -3 32 C-2.67 29.69 -2.34 27.38 -2 25 C-1.67 25 -1.34 25 -1 25 C-0.67 16.75 -0.34 8.5 0 0 Z " fill="#F8F0E4" transform="translate(811,769)"/>
<path d="M0 0 C0.99 0.33 1.98 0.66 3 1 C2.67 1.66 2.34 2.32 2 3 C1.34 3 0.68 3 0 3 C-0.33 3.99 -0.66 4.98 -1 6 C-1.66 6 -2.32 6 -3 6 C-2.896875 6.763125 -2.79375 7.52625 -2.6875 8.3125 C-2.790625 9.199375 -2.89375 10.08625 -3 11 C-5.5 12.8125 -5.5 12.8125 -8 14 C-6.58036591 8.32146365 -3.60636039 4.46825784 0 0 Z " fill="#6A523A" transform="translate(228,230)"/>
<path d="M0 0 C1.5 1.3125 1.5 1.3125 3 3 C3 3.99 3 4.98 3 6 C-5.25 6 -13.5 6 -22 6 C-22 5.01 -22 4.02 -22 3 C-21.67 3.33 -21.34 3.66 -21 4 C-19.43827255 4.08685603 -17.87270656 4.10702219 -16.30859375 4.09765625 C-15.36435547 4.09443359 -14.42011719 4.09121094 -13.44726562 4.08789062 C-11.95743164 4.07532227 -11.95743164 4.07532227 -10.4375 4.0625 C-9.44041016 4.05798828 -8.44332031 4.05347656 -7.41601562 4.04882812 C-4.94395151 4.03700007 -2.47200482 4.02051849 0 4 C0 2.68 0 1.36 0 0 Z " fill="#5D3E22" transform="translate(588,437)"/>
<path d="M0 0 C0.33 0 0.66 0 1 0 C1.33 5.28 1.66 10.56 2 16 C2.99 16.33 3.98 16.66 5 17 C4.67 17.99 4.34 18.98 4 20 C1.9375 20.6875 1.9375 20.6875 0 21 C-0.9584336 18.12469919 -1.06656387 16.70950069 -0.87890625 13.76953125 C-0.83056641 12.96708984 -0.78222656 12.16464844 -0.73242188 11.33789062 C-0.67634766 10.50451172 -0.62027344 9.67113281 -0.5625 8.8125 C-0.48418945 7.5450293 -0.48418945 7.5450293 -0.40429688 6.25195312 C-0.27476311 4.16763701 -0.13806823 2.08376818 0 0 Z " fill="#FAF2E2" transform="translate(656,633)"/>
<path d="M0 0 C0.99 0.33 1.98 0.66 3 1 C2.67 10.9 2.34 20.8 2 31 C1.67 31 1.34 31 1 31 C0.67 20.77 0.34 10.54 0 0 Z " fill="#F7EFE2" transform="translate(620,749)"/>
<path d="M0 0 C1.12647116 3.37941348 0.80736269 4.60907672 0 8 C-0.185625 9.299375 -0.185625 9.299375 -0.375 10.625 C-1.08377309 13.31833773 -1.89883583 14.2350221 -4 16 C-4.66 16.66 -5.32 17.32 -6 18 C-4.83805848 11.53287812 -2.8751252 5.90377651 0 0 Z " fill="#644B33" transform="translate(406,382)"/>
<path d="M0 0 C0.66 0 1.32 0 2 0 C2.66 2.64 3.32 5.28 4 8 C3.34 8 2.68 8 2 8 C2 8.66 2 9.32 2 10 C0.68 9.34 -0.64 8.68 -2 8 C-1.34 5.36 -0.68 2.72 0 0 Z " fill="#F7EFE0" transform="translate(436,361)"/>
<path d="M0 0 C1.51400391 0.01740234 1.51400391 0.01740234 3.05859375 0.03515625 C4.07050781 0.04417969 5.08242188 0.05320312 6.125 0.0625 C7.29869141 0.07990234 7.29869141 0.07990234 8.49609375 0.09765625 C8.49609375 0.42765625 8.49609375 0.75765625 8.49609375 1.09765625 C5.85609375 1.09765625 3.21609375 1.09765625 0.49609375 1.09765625 C-0.16390625 3.40765625 -0.82390625 5.71765625 -1.50390625 8.09765625 C-2.49390625 7.76765625 -3.48390625 7.43765625 -4.50390625 7.09765625 C-3.46694712 0.13521635 -3.46694712 0.13521635 0 0 Z " fill="#F8ECDE" transform="translate(735.50390625,614.90234375)"/>
<path d="M0 0 C0.55300781 0.2990625 1.10601562 0.598125 1.67578125 0.90625 C4.95535827 2.44958036 8.36375981 3.27808463 11.85546875 4.21875 C14 5 14 5 15 7 C12.69 7 10.38 7 8 7 C8 6.34 8 5.68 8 5 C6.8553125 4.814375 6.8553125 4.814375 5.6875 4.625 C3 4 3 4 0 2 C0 1.34 0 0.68 0 0 Z " fill="#725E49" transform="translate(333,273)"/>
<path d="M0 0 C0.66 0.99 1.32 1.98 2 3 C1.125 6.6875 1.125 6.6875 0 10 C-0.99 10 -1.98 10 -3 10 C-2.69201674 8.51988629 -2.378482 7.04092675 -2.0625 5.5625 C-1.88847656 4.73878906 -1.71445312 3.91507812 -1.53515625 3.06640625 C-1 1 -1 1 0 0 Z " fill="#675037" transform="translate(420,343)"/>
<path d="M0 0 C0.33 0 0.66 0 1 0 C1 3.3 1 6.6 1 10 C2.65 10.33 4.3 10.66 6 11 C5.67 11.66 5.34 12.32 5 13 C3.35 12.67 1.7 12.34 0 12 C0 8.04 0 4.08 0 0 Z " fill="#5B422B" transform="translate(303,632)"/>
<path d="M0 0 C4 4.625 4 4.625 4 8 C3.34 8 2.68 8 2 8 C0.61767557 6.37373596 -0.71937515 4.7074998 -2 3 C-1.34 2.01 -0.68 1.02 0 0 Z " fill="#F2E6D5" transform="translate(543,407)"/>
<path d="M0 0 C0.99 0.33 1.98 0.66 3 1 C2.2884375 1.680625 2.2884375 1.680625 1.5625 2.375 C-0.09027808 3.93258204 -0.09027808 3.93258204 -1 6 C-1.99 6 -2.98 6 -4 6 C-3.6875 4.125 -3.6875 4.125 -3 2 C-2.01 1.34 -1.02 0.68 0 0 Z " fill="#6F583F" transform="translate(414,155)"/>
<path d="M0 0 C0.33 0 0.66 0 1 0 C1.1799928 5.21979128 0.97094808 9.07262981 -1 14 C-1.66 14 -2.32 14 -3 14 C-2.01 9.38 -1.02 4.76 0 0 Z " fill="#5D4228" transform="translate(465,192)"/>
<path d="M0 0 C0.99 0 1.98 0 3 0 C2.71872579 1.48117801 2.42466268 2.95993249 2.125 4.4375 C1.96257812 5.26121094 1.80015625 6.08492188 1.6328125 6.93359375 C1.31957031 7.95646484 1.31957031 7.95646484 1 9 C0.01 9.495 0.01 9.495 -1 10 C-0.67 6.7 -0.34 3.4 0 0 Z " fill="#624B35" transform="translate(408,433)"/>
<path d="M0 0 C-3.96 1.98 -3.96 1.98 -8 4 C-8.99 3.34 -9.98 2.68 -11 2 C-9.73392393 1.46770674 -8.46189588 0.94955456 -7.1875 0.4375 C-6.47980469 0.14746094 -5.77210938 -0.14257812 -5.04296875 -0.44140625 C-3 -1 -3 -1 0 0 Z " fill="#907A64" transform="translate(437,146)"/>
<path d="M0 0 C0.66 0.33 1.32 0.66 2 1 C1.34 2.98 0.68 4.96 0 7 C-1.65 5.68 -3.3 4.36 -5 3 C-2.625 1.4375 -2.625 1.4375 0 0 Z " fill="#7E6750" transform="translate(423,149)"/>
<path d="M0 0 C0.33 1.32 0.66 2.64 1 4 C0.01 4.66 -0.98 5.32 -2 6 C-2.66 5.34 -3.32 4.68 -4 4 C-2.68 2.68 -1.36 1.36 0 0 Z " fill="#7E654D" transform="translate(409,159)"/>
</svg>
